<?xml version="1.0" encoding="utf-8"?>
<!-- Generator: Adobe Illustrator 16.0.0, SVG Export Plug-In . SVG Version: 6.00 Build 0)  -->
<!DOCTYPE svg PUBLIC "-//W3C//DTD SVG 1.1//EN" "http://www.w3.org/Graphics/SVG/1.1/DTD/svg11.dtd">
<svg version="1.1" id="Layer_1" xmlns="http://www.w3.org/2000/svg" xmlns:xlink="http://www.w3.org/1999/xlink" x="0px" y="0px"
	 width="1568px" height="1400px" viewBox="0 0 1568 1400" enable-background="new 0 0 1568 1400" xml:space="preserve">
<g>
	<polygon fill="#D7F2FF" points="802.2,1227.6 1066.7,1227.6 1180.1,1265.4 1417.6,1215.5 1568,1215.5 1568,0 0,0 0,1195.5 
		580.8,1165.6 	"/>
	<path fill="#CEE8F5" d="M387.2,812L387.2,812c0-19.7,15.9-35.6,35.6-35.6h25.7c10.3,0,18.6-8.3,18.6-18.6
		c0-10.3-8.3-18.6-18.6-18.6h-1.8c-13.8,0-25-11.2-25-25c0-13.8,11.2-25,25-25h8c6.7,0,12.6-3.6,15.8-8.9c1.7-2.8,2.7-6.1,2.7-9.7
		c0-10.3,8.3-18.6,18.6-18.6h7.9c9,0,16.4-7.3,16.4-16.4c0-9-7.3-16.4-16.4-16.4h-35.4c-13.8,0-25-11.2-25-25c0-4.1,1-7.9,2.7-11.3
		c4.1-8.1,12.5-13.7,22.3-13.7h75.8c13.8,0,25-11.2,25-25c0-13.8-11.2-25-25-25h-6.7c-14.1,0-25.5-11.4-25.5-25.5
		c0-14.1,11.4-25.5,25.5-25.5h126.1c18.3,0,33.1-14.8,33.1-33.1c0-18.3-14.8-33.1-33.1-33.1h-23.8c-18.3,0-33.1-14.8-33.1-33.1
		c0-18.3,14.8-33.1,33.1-33.1h127.9c12.7,0,23-10.3,23-23c0-12.7,10.3-23,23-23h205.6c12.7,0,23,10.3,23,23c0,12.7,10.3,23,23,23
		h167.1c18.3,0,33.1,14.8,33.1,33.1c0,18.3,14.8,33.1,33.1,33.1h13.5c18.3,0,33.1,14.8,33.1,33.1c0,18.3,14.8,33.1,33.1,33.1h17
		c18.3,0,33.1,14.8,33.1,33.1c0,18.3-14.8,33.1-33.1,33.1h-6.8c-23.9,0-43.3,19.4-43.3,43.3c0,1.4,0.1,2.7,0.2,4
		c2,22,20.5,39.2,43.1,39.2h84.2c12.7,0,23,10.3,23,23c0,12.7-10.3,23-23,23h-37.7c-6.4,0-12.1,3.3-15.4,8.2c-2,3-3.2,6.5-3.2,10.4
		c0,10.3,8.3,18.6,18.6,18.6h3.7c18.3,0,33.1,14.8,33.1,33.1c0,18.3-14.8,33.1-33.1,33.1h-26.2c-10.3,0-18.6,8.3-18.6,18.6
		c0,10.3,8.3,18.6,18.6,18.6h126.5c18.3,0,33.1,14.8,33.1,33.1v310.5H387.2L387.2,812L387.2,812z"/>
	<path fill="#FFFFFF" d="M767.9,450.2h44.9c0-22.3,18.1-40.4,40.4-40.4c22.3,0,40.4,18.1,40.4,40.4h4c14,0,25.3,11.3,25.3,25.3
		c0,14-11.3,25.3-25.3,25.3H767.9c-14,0-25.3-11.3-25.3-25.3C742.6,461.5,754,450.2,767.9,450.2z"/>
	<path fill="#FFFFFF" d="M1435.7,346.8h-23.1c0-11.5-9.3-20.8-20.8-20.8c-11.5,0-20.8,9.3-20.8,20.8h-2.1c-7.2,0-13,5.8-13,13
		c0,7.2,5.8,13,13,13h66.7c7.2,0,13-5.8,13-13C1448.7,352.6,1442.9,346.8,1435.7,346.8z"/>
	<path fill="#FFFFFF" d="M977.4,185.1H953c0-12-9.7-21.7-21.7-21.7c-3.3,0-6.4,0.8-9.1,2.1c-6.9-8.1-17.2-13.2-28.6-13.2
		c-12.8,0-24.1,6.4-30.9,16.1c-3.2-8.4-11.2-14.4-20.7-14.4c-3.6,0-7,1-10,2.5c-5.3-12.2-17.4-20.8-31.6-20.8
		c-16.8,0-30.7,12-33.8,27.9c-2.5-0.7-5.1-1.3-7.9-1.3c-15.3,0-27.8,12.4-27.8,27.8c0,4,0.8,7.7,2.3,11.1h-34.3
		c-9.7,0-17.5,7.8-17.5,17.5c0,9.7,7.8,17.5,17.5,17.5h68.6h19.2h190.8c14.1,0,25.5-11.4,25.5-25.6
		C1003,196.6,991.5,185.1,977.4,185.1z"/>
	<path fill="#FFFFFF" d="M1085.8,497.2h10.1c0-10.1,8.2-18.2,18.2-18.2c2.7,0,5.3,0.6,7.7,1.7c4.9-7.7,13.6-12.9,23.4-12.9
		c15.3,0,27.8,12.4,27.8,27.8c0,0.6,0,1.1-0.1,1.7h4.9c10.1,0,18.2,8.2,18.2,18.2s-8.2,18.2-18.2,18.2h-92
		c-10.1,0-18.2-8.2-18.2-18.2S1075.7,497.2,1085.8,497.2z"/>
	<path fill="#FFFFFF" d="M976.3,742.2h-11.7c0-11.7-9.5-21.1-21.1-21.1c-3.2,0-6.2,0.7-8.9,2c-5.7-9-15.7-15-27.2-15
		c-17.8,0-32.2,14.4-32.2,32.2c0,0.7,0.1,1.3,0.1,1.9h-5.7c-11.7,0-21.2,9.5-21.2,21.1c0,11.7,9.5,21.1,21.2,21.1h106.7
		c11.7,0,21.2-9.5,21.2-21.1C997.4,751.6,987.9,742.2,976.3,742.2z"/>
	<path fill="#FFFFFF" d="M1119,227h9.6c-0.7-2.6-1.1-5.4-1.1-8.2c0-18.2,14.8-33,33-33c3.7,0,7.3,0.6,10.6,1.8
		c10.3-26.3,35.9-44.9,65.8-44.9c29.9,0,55.5,18.6,65.8,44.9c5.5-3.4,12-5.4,19-5.4c15.6,0,28.8,9.7,34.1,23.4
		c0.8-0.1,1.6-0.3,2.5-0.3c12,0,21.7,9.7,21.7,21.7h18.9c8.2,0,14.8,6.6,14.8,14.8c0,8.2-6.6,14.8-14.8,14.8H1119
		c-8.2,0-14.8-6.6-14.8-14.8C1104.2,233.7,1110.8,227,1119,227z"/>
	<path opacity="0.2" fill="#FFFC99" d="M662.1,308.4c0,116.2-94.2,210.4-210.4,210.4c-116.2,0-210.4-94.2-210.4-210.4
		C241.2,192.2,335.5,98,451.7,98C567.9,98,662.1,192.2,662.1,308.4z"/>
	<path opacity="0.1" fill="#FFFC99" d="M624.4,308.4c0,95.4-77.3,172.7-172.7,172.7c-95.4,0-172.7-77.3-172.7-172.7
		c0-95.4,77.3-172.7,172.7-172.7C547.1,135.7,624.4,213,624.4,308.4z"/>
	<path fill="#FFFC99" d="M557.5,308.4c0,58.5-47.4,105.9-105.9,105.9c-58.5,0-105.8-47.4-105.8-105.9c0-58.5,47.4-105.9,105.8-105.9
		C510.1,202.5,557.5,249.9,557.5,308.4z"/>
	<g>
		<polygon fill="#59C8E4" points="1398.2,1066.6 1186.4,910.2 1249.4,910.2 1143,728.1 617.6,1253.4 1555.3,1323.5 1305.6,1066.6 		
			"/>
		<polygon fill="#FFFFFF" points="1567.4,1149.2 1144.6,726.4 1143,728.1 1249.4,910.2 1186.4,910.2 1398.2,1066.6 1305.6,1066.6 
			1483.7,1253.4 1567.4,1253.4 		"/>
	</g>
	<g>
		<polygon fill="#59C8E4" points="779,1090.9 718.4,1048.5 652.9,1048.5 562.8,958.4 609.6,958.4 533.5,858 521.6,850.5 
			246.2,1073.4 166.8,1073.4 46.1,1198.3 636.2,1198.3 647.5,1090.9 		"/>
		<polygon fill="#FFFFFF" points="533.5,858 609.6,958.4 562.8,958.4 652.9,1048.5 718.4,1048.5 779,1090.9 647.5,1090.9 
			638.2,1218.2 1242.1,1303.2 		"/>
	</g>
	<g>
		<rect x="210.7" y="242.5" fill="#FF9182" width="31.7" height="38.5"/>
		<polygon fill="none" stroke="#000000" stroke-miterlimit="10" points="88.2,388.5 103.1,388.5 103.1,387.4 		"/>
		<polygon fill="#C4B185" points="205.7,380.2 103.1,387.4 103.1,388.5 103.1,507.5 255,521.5 255,385.9 255,376.7 		"/>
		<polygon fill="#FF7463" points="149.4,282.6 88.2,388.5 103.1,387.4 205.7,380.2 255,376.7 264.9,376 269,368.9 336.2,252.5 
			343,240.8 		"/>
		<polygon fill="#FF7463" points="343,240.8 336.2,252.5 402,368.9 406,376 407,376 421.1,376 		"/>
		<polygon fill="#C4B186" points="407,383.2 407,376.9 407,376 406,376 402,368.9 336.2,252.5 329.9,263.4 397.5,383.2 		"/>
		<polygon fill="#D4BF90" points="397.5,383.2 329.9,263.4 269,368.9 264.9,376 255,376.7 255,385.9 255,521.5 407,507.5 407,383.2 
					"/>
		<polygon fill="#8C7F60" points="306.4,404.5 306.4,344.9 366,344.9 366,399.8 		"/>
		<g>
			<polygon fill="#20B1DB" points="361.5,349.4 310.9,349.4 310.9,399.9 344.8,381.7 			"/>
			<polygon fill="#1CA2C8" points="344.8,381.7 310.9,399.9 310.9,400 361.5,396.1 361.5,349.4 			"/>
		</g>
		<polygon fill="#8C7F60" points="306.4,485.2 306.4,425.7 366,422.3 366,480.6 		"/>
		<g>
			<polygon fill="#20B1DB" points="361.5,427.2 310.9,430.1 310.9,480.7 344.8,461.8 			"/>
			<polygon fill="#1CA2C8" points="344.8,461.8 310.9,480.7 310.9,480.8 361.5,476.8 361.5,427.2 			"/>
		</g>
	</g>
	<polygon fill="#263F4F" points="406.3,828.5 747.8,766.5 747.8,726.4 377,791.7 	"/>
	<g>
		<polygon fill="#263F4F" points="310.9,1013.7 269.7,1082.6 2,1198.3 9.8,1198.3 423.6,1198.3 423.6,1128.9 380.8,1061.1 
			419.3,1022.6 419.3,950 377,963.1 		"/>
		<polygon fill="#2A4658" points="799.9,555.8 712,503.8 612.8,503.8 564,455 521.7,503.8 0,503.8 0,1198.3 2,1198.3 269.7,1082.6 
			310.9,1013.7 377,963.1 419.3,950 456.1,900.1 406.3,828.5 377,791.7 747.8,726.4 747.8,725 842.2,640.4 		"/>
	</g>
	<polygon fill="#263F4F" points="185.6,908.2 183.5,858.5 0,821 0,1088.9 239.9,1003.1 274.1,931.4 	"/>
	<polygon fill="#263F4F" points="0,554.2 558.5,554.2 607.8,584.5 698.9,584.5 711.1,632.7 407,663.5 393.2,632.7 226.5,708 
		152.3,693.9 0,656.8 	"/>
	<g>
		<polygon fill="#009372" points="566.2,1088.8 562.1,1088.8 567.3,1093.9 572.8,1121.4 566.9,1119.2 573.9,1126.8 579.2,1152.9 
			573.8,1151.7 580.2,1158.2 583.6,1174.9 548.5,1174.9 554.8,1031.9 		"/>
		<polygon fill="#009372" points="537,1144.2 531.9,1145.1 538.2,1114.1 543.7,1104.6 540,1105.2 543.9,1085.4 548.5,1079.1 
			545,1080.2 554.8,1031.9 548.5,1174.9 525.9,1174.9 530.4,1152.5 		"/>
	</g>
	<g>
		<polygon fill="#009372" points="1018.4,1179.3 1014.3,1179.3 1019.4,1184.4 1024.9,1212 1019,1209.7 1026,1217.3 1031.3,1243.4 
			1025.9,1242.3 1032.4,1248.7 1035.7,1265.4 1000.6,1265.4 1006.9,1122.4 		"/>
		<polygon fill="#009372" points="989.1,1234.7 984,1235.6 990.3,1204.6 995.8,1195.2 992.1,1195.8 996.1,1175.9 1000.6,1169.7 
			997.1,1170.8 1006.9,1122.4 1000.6,1265.4 978,1265.4 982.5,1243 		"/>
	</g>
	<g>
		<polygon fill="#009372" points="744.7,1166 741.6,1166 745.5,1169.9 749.8,1191 745.2,1189.3 750.6,1195.1 754.6,1215.1 
			750.5,1214.2 755.5,1219.2 758,1232 731.1,1232 736,1122.4 		"/>
		<polygon fill="#009372" points="722.3,1208.4 718.4,1209.1 723.2,1185.4 727.4,1178.1 724.6,1178.6 727.7,1163.4 731.1,1158.6 
			728.5,1159.5 736,1122.4 731.1,1232 713.8,1232 717.3,1214.8 		"/>
	</g>
	<g>
		<polygon fill="#009372" points="1183.6,1220.8 1180.5,1220.8 1184.4,1224.7 1188.6,1245.8 1184.1,1244.1 1189.5,1249.9 
			1193.5,1269.9 1189.4,1269 1194.3,1274 1196.9,1286.7 1170,1286.7 1174.8,1177.2 		"/>
		<polygon fill="#009372" points="1161.2,1263.2 1157.3,1263.9 1162.1,1240.2 1166.3,1232.9 1163.5,1233.4 1166.5,1218.2 
			1170,1213.4 1167.3,1214.2 1174.8,1177.2 1170,1286.7 1152.7,1286.7 1156.2,1269.6 		"/>
	</g>
	<g>
		<polygon fill="#009372" points="820.9,1134.2 814.5,1134.2 822.6,1142.1 831.3,1185.4 822,1181.9 833,1193.9 841.3,1234.9 
			832.7,1233 842.9,1243.2 848.2,1269.5 793,1269.5 802.9,1044.7 		"/>
		<polygon fill="#009372" points="775,1221.2 767,1222.6 776.8,1173.9 785.5,1159.1 779.6,1160 785.9,1128.8 793,1119 787.6,1120.7 
			802.9,1044.7 793,1269.5 757.5,1269.5 764.6,1234.3 		"/>
	</g>
	<g>
		<polygon fill="#009372" points="1305.5,1142.6 1299.1,1142.6 1307.2,1150.6 1315.9,1193.9 1306.6,1190.4 1317.6,1202.4 
			1325.8,1243.4 1317.3,1241.5 1327.5,1251.7 1332.8,1278 1277.6,1278 1287.5,1053.2 		"/>
		<polygon fill="#009372" points="1259.6,1229.7 1251.6,1231.1 1261.4,1182.4 1270.1,1167.5 1264.2,1168.5 1270.5,1137.3 
			1277.6,1127.5 1272.2,1129.2 1287.5,1053.2 1277.6,1278 1242.1,1278 1249.2,1242.8 		"/>
	</g>
	<g>
		<polygon fill="#009372" points="1402.7,1113.9 1396.3,1113.9 1404.3,1121.9 1413,1165.2 1403.7,1161.7 1414.8,1173.7 1423,1214.6 
			1414.5,1212.8 1424.7,1223 1430,1249.2 1374.8,1249.2 1384.7,1024.4 		"/>
		<polygon fill="#009372" points="1356.7,1201 1348.8,1202.3 1358.6,1153.7 1367.2,1138.8 1361.4,1139.7 1367.7,1108.6 
			1374.8,1098.7 1369.3,1100.5 1384.7,1024.4 1374.8,1249.2 1339.3,1249.2 1346.4,1214.1 		"/>
	</g>
	<g>
		<polygon fill="#009372" points="1104.5,1121.3 1098.1,1121.3 1106.1,1129.3 1114.8,1172.6 1105.5,1169.1 1116.5,1181.1 
			1124.8,1222.1 1116.3,1220.2 1126.5,1230.4 1131.8,1256.7 1076.6,1256.7 1086.4,1031.9 		"/>
		<polygon fill="#009372" points="1058.5,1208.4 1050.6,1209.8 1060.4,1161.1 1069,1146.3 1063.2,1147.2 1069.5,1116 1076.6,1106.2 
			1071.1,1107.9 1086.4,1031.9 1076.6,1256.7 1041.1,1256.7 1048.2,1221.5 		"/>
	</g>
	<g>
		<polygon fill="#009372" points="667.2,1063 660.8,1063 668.8,1070.9 677.6,1114.3 668.2,1110.7 679.3,1122.7 687.5,1163.7 
			679,1161.9 689.2,1172.1 694.5,1198.3 639.3,1198.3 649.2,973.5 		"/>
		<polygon fill="#009372" points="621.2,1150 613.3,1151.4 623.1,1102.8 631.7,1087.9 625.9,1088.8 632.2,1057.7 639.3,1047.8 
			633.8,1049.5 649.2,973.5 639.3,1198.3 603.8,1198.3 610.9,1163.1 		"/>
	</g>
	<g>
		<polygon fill="#009372" points="1482.4,1175.4 1476,1175.4 1484,1183.4 1492.7,1226.7 1483.4,1223.1 1494.4,1235.1 1502.7,1276.1 
			1494.2,1274.3 1504.4,1284.5 1509.7,1310.7 1454.5,1310.7 1464.3,1085.9 		"/>
		<polygon fill="#009372" points="1436.4,1262.5 1428.4,1263.8 1438.3,1215.2 1446.9,1200.3 1441.1,1201.2 1447.3,1170.1 
			1454.5,1160.2 1449,1161.9 1464.3,1085.9 1454.5,1310.7 1419,1310.7 1426.1,1275.5 		"/>
	</g>
	<g>
		<polygon fill="#009372" points="496.1,1102.2 489.1,1102.2 497.9,1110.9 507.4,1158.2 497.2,1154.4 509.3,1167.4 518.3,1212.1 
			509,1210.1 520.1,1221.3 525.9,1249.9 465.7,1249.9 476.4,1004.6 		"/>
		<polygon fill="#009372" points="445.9,1197.2 437.2,1198.7 448,1145.6 457.4,1129.4 451,1130.4 457.9,1096.4 465.7,1085.7 
			459.7,1087.5 476.4,1004.6 465.7,1249.9 426.9,1249.9 434.7,1211.5 		"/>
	</g>
	<polygon fill="#806685" points="747.8,1303.2 1086.4,1303.2 1254.9,1347.8 1431.8,1277.9 1568,1257.3 1568,1215.5 1417.6,1215.5 
		1180.1,1265.4 1066.7,1227.6 802.2,1227.6 580.8,1165.6 0,1195.5 0,1208.1 558.5,1208.1 	"/>
	<polygon fill="#6D5670" points="1431.8,1277.9 1254.9,1347.8 1086.4,1303.2 747.8,1303.2 558.5,1208.1 0,1208.1 0,1400 1568,1400 
		1568,1257.3 	"/>
</g>
</svg>
