<?xml version="1.0" encoding="UTF-8" standalone="no"?>
<svg
   xmlns:dc="http://purl.org/dc/elements/1.1/"
   xmlns:cc="http://creativecommons.org/ns#"
   xmlns:rdf="http://www.w3.org/1999/02/22-rdf-syntax-ns#"
   xmlns:svg="http://www.w3.org/2000/svg"
   xmlns="http://www.w3.org/2000/svg"
   xmlns:sodipodi="http://sodipodi.sourceforge.net/DTD/sodipodi-0.dtd"
   xmlns:inkscape="http://www.inkscape.org/namespaces/inkscape"
   width="500"
   height="500"
   viewBox="0 0 132.29166 132.29167"
   version="1.1"
   id="svg8"
   inkscape:version="1.0.1 (1.0.1+r73)"
   sodipodi:docname="logo2.svg">
  <defs
     id="defs2">
    <filter
       inkscape:collect="always"
       style="color-interpolation-filters:sRGB"
       id="filter1164"
       x="-0.044543074"
       width="1.0890861"
       y="-0.04440558"
       height="1.0888112">
      <feGaussianBlur
         inkscape:collect="always"
         stdDeviation="3.3974255"
         id="feGaussianBlur1166" />
    </filter>
    <filter
       inkscape:collect="always"
       style="color-interpolation-filters:sRGB"
       id="filter1168"
       x="-0.054059584"
       width="1.1081192"
       y="-0.053892713"
       height="1.1077854">
      <feGaussianBlur
         inkscape:collect="always"
         stdDeviation="3.3974255"
         id="feGaussianBlur1170" />
    </filter>
    <filter
       inkscape:collect="always"
       style="color-interpolation-filters:sRGB"
       id="filter1820"
       x="-0.091400765"
       width="1.1828015"
       y="-0.091118641"
       height="1.1822373">
      <feGaussianBlur
         inkscape:collect="always"
         stdDeviation="6.4477405"
         id="feGaussianBlur1822" />
    </filter>
    <filter
       inkscape:collect="always"
       style="color-interpolation-filters:sRGB"
       id="filter2048"
       x="-0.095619888"
       width="1.1912398"
       y="-0.095324741"
       height="1.1906495">
      <feGaussianBlur
         inkscape:collect="always"
         stdDeviation="6.7453727"
         id="feGaussianBlur2050" />
    </filter>
    <filter
       inkscape:collect="always"
       style="color-interpolation-filters:sRGB"
       id="filter1063"
       x="-0.17004957"
       width="1.3400991"
       y="-0.16952466"
       height="1.3390493">
      <feGaussianBlur
         inkscape:collect="always"
         stdDeviation="10.686926"
         id="feGaussianBlur1065" />
    </filter>
  </defs>
  <sodipodi:namedview
     id="base"
     pagecolor="#ffffff"
     bordercolor="#666666"
     borderopacity="1.0"
     inkscape:pageopacity="0.0"
     inkscape:pageshadow="2"
     inkscape:zoom="0.79326923"
     inkscape:cx="-93.975887"
     inkscape:cy="407.42316"
     inkscape:document-units="mm"
     inkscape:current-layer="g1530"
     inkscape:document-rotation="0"
     showgrid="false"
     units="px"
     inkscape:window-width="1920"
     inkscape:window-height="976"
     inkscape:window-x="0"
     inkscape:window-y="27"
     inkscape:window-maximized="1" />
  <metadata
     id="metadata5">
    <rdf:RDF>
      <cc:Work
         rdf:about="">
        <dc:format>image/svg+xml</dc:format>
        <dc:type
           rdf:resource="http://purl.org/dc/dcmitype/StillImage" />
        <dc:title />
      </cc:Work>
    </rdf:RDF>
  </metadata>
  <g
     inkscape:label="Layer 1"
     inkscape:groupmode="layer"
     id="layer1">
    <g
       id="g1543"
       transform="matrix(0.66249337,0,0,0.66060239,-3.0665498,-23.150275)">
      <g
         id="g1536"
         transform="translate(-3.5705627,2.8309587)">
        <g
           id="g1530">
          <path
             style="fill:none;stroke:#ffffff;stroke-width:13.6883;stroke-linecap:butt;stroke-linejoin:miter;stroke-miterlimit:4;stroke-dasharray:none;stroke-opacity:1;filter:url(#filter1063)"
             d="m 34.214591,85.427411 c -5.1605,-11.049638 12.12641,-32.156416 23.58143,-27.972186 46.062439,16.825458 44.514239,126.542815 0,147.117705 -9.36753,4.32976 -27.10105,-10.3587 -23.58143,-20.05972 16.93986,-46.69084 129.416339,-46.95535 149.000719,-1.31058 4.45695,10.3877 -13.10322,28.60848 -23.58143,24.3687 -46.38536,-18.76888 -46.92133,-132.73041 0,-150.116105 11.31183,-4.191361 28.59725,16.481357 23.58143,27.452535 -20.65105,45.1704 -127.983789,45.52098 -149.000719,0.519651 z"
             id="path853"
             sodipodi:nodetypes="aaaaaaaaa" />
          <path
             style="fill:none;stroke:#787878;stroke-width:16.6129;stroke-linecap:butt;stroke-linejoin:miter;stroke-miterlimit:4;stroke-dasharray:none;stroke-opacity:1;filter:url(#filter1164)"
             d="m 18.397858,75.350364 c -6.26303,-13.410363 14.71718,-39.026547 28.61953,-33.948368 55.903562,20.420173 54.024602,153.578354 0,178.549014 -11.36887,5.2548 -32.89111,-12.57182 -28.61953,-24.34543 20.55901,-56.66622 157.065792,-56.98723 180.834332,-1.59058 5.40917,12.60701 -15.90271,34.72061 -28.61955,29.575 -56.29547,-22.77879 -56.94594,-161.087901 0,-182.188004 13.72858,-5.086833 34.70698,20.002555 28.61955,33.317696 -25.0631,54.820938 -155.327192,55.246418 -180.834332,0.630672 z"
             id="path833"
             sodipodi:nodetypes="aaaaaaaaa" />
          <path
             style="fill:none;stroke:#8e8e8e;stroke-width:13.6883;stroke-linecap:butt;stroke-linejoin:miter;stroke-miterlimit:4;stroke-dasharray:none;stroke-opacity:1;filter:url(#filter1168)"
             d="m 34.214591,85.427411 c -5.1605,-11.049638 12.12641,-32.156416 23.58143,-27.972186 46.062439,16.825458 44.514239,126.542815 0,147.117705 -9.36753,4.32976 -27.10105,-10.3587 -23.58143,-20.05972 16.93986,-46.69084 129.416339,-46.95535 149.000719,-1.31058 4.45695,10.3877 -13.10322,28.60848 -23.58143,24.3687 -46.38536,-18.76888 -46.92133,-132.73041 0,-150.116105 11.31183,-4.191361 28.59725,16.481357 23.58143,27.452535 -20.65105,45.1704 -127.983789,45.52098 -149.000719,0.519651 z"
             id="path1525"
             sodipodi:nodetypes="aaaaaaaaa" />
          <path
             style="fill:none;stroke:#000000;stroke-width:15.365;stroke-linecap:butt;stroke-linejoin:miter;stroke-miterlimit:4;stroke-dasharray:none;stroke-opacity:1;fill-opacity:1;filter:url(#filter1820)"
             d="M 25.277029,79.5837 C 19.484446,67.180653 38.888742,43.488621 51.746824,48.185354 c 51.704406,18.886317 49.966586,142.042376 0,165.137376 -10.514907,4.86009 -30.420509,-11.62749 -26.469795,-22.51673 19.014729,-52.40975 145.267881,-52.70665 167.251051,-1.4711 5.00286,11.66003 -14.70818,32.11258 -26.4698,27.35348 -52.06685,-21.06777 -52.66846,-148.987851 0,-168.503026 12.69736,-4.704737 32.09997,18.500069 26.4698,30.815046 -23.18049,50.7031 -143.659866,51.09662 -167.251051,0.5833 z"
             id="path835"
             sodipodi:nodetypes="aaaaaaaaa" />
          <path
             style="fill:none;stroke:#000000;stroke-width:15.365;stroke-linecap:butt;stroke-linejoin:miter;stroke-miterlimit:4;stroke-dasharray:none;stroke-opacity:1;fill-opacity:1;filter:url(#filter2048)"
             d="M 25.277029,79.5837 C 19.484446,67.180653 38.888742,43.488621 51.746824,48.185354 c 51.704406,18.886317 49.966586,142.042376 0,165.137376 -10.514907,4.86009 -30.420509,-11.62749 -26.469795,-22.51673 19.014729,-52.40975 145.267881,-52.70665 167.251051,-1.4711 5.00286,11.66003 -14.70818,32.11258 -26.4698,27.35348 -52.06685,-21.06777 -52.66846,-148.987851 0,-168.503026 12.69736,-4.704737 32.09997,18.500069 26.4698,30.815046 -23.18049,50.7031 -143.659866,51.09662 -167.251051,0.5833 z"
             id="path1824"
             sodipodi:nodetypes="aaaaaaaaa" />
        </g>
      </g>
    </g>
  </g>
</svg>
