<?xml version="1.0" encoding="UTF-8" standalone="no"?>
<svg
   xmlns:dc="http://purl.org/dc/elements/1.1/"
   xmlns:cc="http://creativecommons.org/ns#"
   xmlns:rdf="http://www.w3.org/1999/02/22-rdf-syntax-ns#"
   xmlns:svg="http://www.w3.org/2000/svg"
   xmlns="http://www.w3.org/2000/svg"
   xmlns:sodipodi="http://sodipodi.sourceforge.net/DTD/sodipodi-0.dtd"
   xmlns:inkscape="http://www.inkscape.org/namespaces/inkscape"
   width="720"
   height="500"
   viewBox="0 0 190.5 132.29167"
   version="1.1"
   id="svg8"
   inkscape:version="1.0.1 (1.0.1+r73)"
   sodipodi:docname="logo.svg">
  <defs
     id="defs2">
    <filter
       inkscape:collect="always"
       style="color-interpolation-filters:sRGB"
       id="filter930"
       x="-0.089518555"
       width="1.1790371"
       y="-0.14138311"
       height="1.2827662">
      <feGaussianBlur
         inkscape:collect="always"
         stdDeviation="6.5266687"
         id="feGaussianBlur932" />
    </filter>
    <filter
       inkscape:collect="always"
       style="color-interpolation-filters:sRGB"
       id="filter1562"
       x="-0.014445337"
       width="1.0288907"
       y="-0.011078935"
       height="1.0221579">
      <feGaussianBlur
         inkscape:collect="always"
         stdDeviation="0.42729381"
         id="feGaussianBlur1564" />
    </filter>
    <filter
       inkscape:collect="always"
       style="color-interpolation-filters:sRGB"
       id="filter1566"
       x="-0.0058548902"
       width="1.0117098"
       y="-0.0099329269"
       height="1.0198659">
      <feGaussianBlur
         inkscape:collect="always"
         stdDeviation="0.42664036"
         id="feGaussianBlur1568" />
    </filter>
    <filter
       inkscape:collect="always"
       style="color-interpolation-filters:sRGB"
       id="filter2050"
       x="-0.10502733"
       width="1.2100548"
       y="-0.047600828"
       height="1.0952017">
      <feGaussianBlur
         inkscape:collect="always"
         stdDeviation="0.94617593"
         id="feGaussianBlur2052" />
    </filter>
    <filter
       inkscape:collect="always"
       style="color-interpolation-filters:sRGB"
       id="filter2054"
       x="-0.10502792"
       width="1.2100558"
       y="-0.047600828"
       height="1.0952017">
      <feGaussianBlur
         inkscape:collect="always"
         stdDeviation="0.94617593"
         id="feGaussianBlur2056" />
    </filter>
  </defs>
  <sodipodi:namedview
     id="base"
     pagecolor="#ffffff"
     bordercolor="#666666"
     borderopacity="1.0"
     inkscape:pageopacity="0.0"
     inkscape:pageshadow="2"
     inkscape:zoom="0.94745746"
     inkscape:cx="199.2454"
     inkscape:cy="334.93638"
     inkscape:document-units="mm"
     inkscape:current-layer="layer2"
     inkscape:document-rotation="0"
     showgrid="false"
     inkscape:window-width="1920"
     inkscape:window-height="976"
     inkscape:window-x="0"
     inkscape:window-y="27"
     inkscape:window-maximized="1"
     units="px" />
  <metadata
     id="metadata5">
    <rdf:RDF>
      <cc:Work
         rdf:about="">
        <dc:format>image/svg+xml</dc:format>
        <dc:type
           rdf:resource="http://purl.org/dc/dcmitype/StillImage" />
        <dc:title></dc:title>
      </cc:Work>
    </rdf:RDF>
  </metadata>
  <g
     inkscape:label="Layer 1"
     inkscape:groupmode="layer"
     id="layer1"
     sodipodi:insensitive="true"
     style="display:none">
    <circle
       id="path833"
       style="fill:#6efffb;stroke:#000000;stroke-width:0.264583"
       cx="71.265434"
       cy="84.270699"
       r="0.020877365" />
    <path
       style="fill:none;stroke:#000000;stroke-width:0.264583px;stroke-linecap:butt;stroke-linejoin:miter;stroke-opacity:1"
       d="m 67.736466,73.064169 25.104947,43.353871 26.171917,47.56729"
       id="path835"
       sodipodi:nodetypes="ccc" />
    <path
       style="fill:none;stroke:#000000;stroke-width:0.264583px;stroke-linecap:butt;stroke-linejoin:miter;stroke-opacity:1"
       d="M 119.01333,73.064169 92.841413,116.41804 67.736466,163.98533"
       id="path837"
       sodipodi:nodetypes="ccc" />
    <path
       style="fill:none;stroke:#000000;stroke-width:0.264583px;stroke-linecap:butt;stroke-linejoin:miter;stroke-opacity:1"
       d="M 75.339042,148.93161 27.821433,57.236742 92.841413,98.920145 157.71659,57.236742 110.67195,148.92676"
       id="path839"
       sodipodi:nodetypes="ccccc" />
  </g>
  <g
     inkscape:groupmode="layer"
     id="layer2"
     inkscape:label="Layer 2">
    <g
       id="g2070"
       transform="translate(-6.1731121,-35.972746)">
      <path
         style="fill:#0092a1;fill-opacity:1;stroke:none;stroke-width:0.273491px;stroke-linecap:butt;stroke-linejoin:miter;stroke-opacity:1;filter:url(#filter930)"
         d="m 76.593178,66.251242 c -2.027322,-0.923797 -4.80106,-1.982156 -6.88126,-1.134007 -1.893256,0.771925 -2.422251,2.943821 -2.530593,4.617383 -0.108621,1.677422 1.925538,4.806346 1.925538,4.806346 C 61.25224,73.725217 45.332451,54.726898 29.976434,49.150165 26.10376,47.743754 21.003333,45.630923 17.374017,47.392986 c -2.738195,1.329319 -4.48643,5.154473 -2.74286,7.273259 19.638487,23.864881 44.967729,50.435815 53.938357,79.086925 1.081959,3.45561 3.225099,11.23903 -0.550908,15.45226 -3.079121,3.43566 -2.106823,5.96326 0.39872,7.5175 2.600599,1.6132 7.756832,0.58187 9.757299,-1.49336 15.210367,-15.7788 23.248285,-26.0171 23.248285,-26.0171 0,0 8.03798,10.2383 23.24843,26.0171 2.00048,2.07523 7.15674,3.10656 9.75736,1.49336 2.50556,-1.55424 3.47785,-4.08184 0.39872,-7.5175 -3.77603,-4.21323 -1.63288,-11.99665 -0.55092,-15.45226 8.97069,-28.65111 34.30008,-55.222044 53.93863,-79.086925 1.74356,-2.118786 -0.005,-5.94394 -2.74286,-7.273259 -3.62932,-1.762063 -8.72976,0.350768 -12.60246,1.757179 -15.35611,5.576733 -31.27598,24.575052 -39.13065,25.390799 0,0 2.03417,-3.128924 1.92554,-4.806346 -0.10834,-1.673562 -0.63734,-3.845458 -2.5306,-4.617383 -2.08021,-0.848149 -4.85724,0.205774 -6.88131,1.134007 -10.83051,4.966875 -11.0793,22.178171 -24.82988,22.205225 C 87.672429,88.429413 87.49477,71.218786 76.593178,66.251242 Z"
         id="path868"
         sodipodi:nodetypes="aaacaasssascsasssaacaaaca" />
      <g
         id="g960"
         transform="matrix(1.0416107,0,0,1.0349131,-4.7720909,-5.2262111)"
         style="filter:url(#filter1566)">
        <path
           style="fill:#5289e9;fill-opacity:1;stroke:none;stroke-width:42.3111;stroke-miterlimit:4;stroke-dasharray:none;stroke-opacity:1"
           d="m 265.21702,538.60638 c -0.0953,-12.36128 -1.84693,-20.9395 -8.06391,-39.49222 C 235.88923,435.65847 197.20699,375.44316 113.75299,275.88808 102.70694,262.71088 85.117486,241.73493 74.665313,229.27486 64.21314,216.81479 55.061387,205.44337 54.328084,204.00504 c -3.005946,-5.89598 -0.147772,-14.87378 6.693389,-21.02457 9.944956,-8.94137 24.142403,-9.90721 54.291077,1.95463 16.09856,6.33389 34.5226,17.22344 55.22771,32.64242 12.49039,9.30152 39.60535,30.91771 42.65484,34.00466 4.1233,4.17395 23.58195,21.40494 56.60577,46.30741 31.59928,23.82825 54.37998,41.66734 66.81182,52.31893 11.73412,10.05378 31.125,28.31524 38.34165,36.10842 l 9.16774,7.74039 v 19.56564 19.56563 l -4.90069,-2.48743 c -1.87407,-0.95121 -9.90752,-8.67219 -18.47143,-16.23134 -53.10444,-46.8739 -118.31257,-97.09118 -198.64475,-152.97782 -17.30098,-12.03619 -20.02049,-13.74128 -19.46722,-12.20567 0.15863,0.44027 5.18223,6.2871 11.16357,12.99295 64.37289,72.17033 109.64966,140.33634 125.58308,189.07037 7.91086,24.19622 27.21412,45.61612 19.63536,69.03081 -2.63473,8.14006 -23.89484,36.9776 -31.4045,40.24592 l -11.80749,5.13881 c 2.30035,-8.71835 9.61997,-17.43565 9.40906,-27.15882 z"
           id="path954"
           transform="scale(0.26458333)"
           sodipodi:nodetypes="sssssssssssscccssssssssccs" />
        <path
           style="fill:#5289e9;fill-opacity:1;stroke:none;stroke-width:11.1948;stroke-miterlimit:4;stroke-dasharray:none;stroke-opacity:1"
           d="m 132.83264,142.50627 c 0.0252,-3.27059 0.48866,-5.54024 2.13359,-10.44898 5.62609,-16.78932 15.86083,-32.721289 37.94149,-59.061903 2.92262,-3.486468 7.57652,-9.036354 10.34201,-12.333081 2.76548,-3.296727 5.1869,-6.305415 5.38092,-6.685973 0.79532,-1.559978 0.0391,-3.935354 -1.77097,-5.562751 -2.63128,-2.365737 -6.38771,-2.621283 -14.3646,0.517163 -4.25943,1.675841 -9.13415,4.557035 -14.61241,8.63664 -3.30477,2.461027 -10.47897,8.18031 -11.28582,8.997066 -1.09097,1.104358 -6.23943,5.66339 -14.97703,12.252169 -8.36069,6.304557 -14.38812,11.024483 -17.67739,13.842716 -3.10467,2.660063 -8.23521,7.491744 -10.14462,9.553684 l -2.42565,2.04798 v 5.17674 5.17674 l 0.76748,-0.65813 c 0.42212,-0.36197 3.15055,-2.29452 5.41643,-4.29454 14.05063,-12.402055 31.30371,-25.68871 52.55839,-40.475383 4.57757,-3.184575 5.29711,-3.635714 5.15073,-3.229417 -0.042,0.116488 -1.37114,1.663462 -2.95371,3.437718 -17.03209,19.095066 -29.01164,37.130652 -33.22738,50.024872 -2.09309,6.40191 -7.20044,12.06926 -5.19522,18.2644 0.69711,2.15372 6.32221,9.78365 8.30915,10.6484 l 3.12409,1.35964 c -0.60864,-2.30673 -2.5453,-4.61318 -2.4895,-7.18577 z"
           id="path956"
           sodipodi:nodetypes="sssssssssssscccssssssssccs" />
      </g>
      <g
         id="g950"
         transform="matrix(1.0411139,0,0,1.0322425,-4.8269558,-5.3691281)"
         style="filter:url(#filter1562)">
        <path
           style="fill:#e95265;fill-opacity:1;stroke:none;stroke-width:7.91591;stroke-miterlimit:4;stroke-dasharray:none;stroke-opacity:1"
           d="m 129.28095,157.50538 c -2.58578,-0.52834 -3.31255,-1.01222 -6.48566,-4.31809 -4.73225,-4.93023 -9.31474,-9.94234 -14.05077,-15.36807 -2.9568,-3.3874 -6.84194,-8.03535 -6.94368,-8.30702 -0.0432,-0.11519 -0.71478,-1.05768 -1.49253,-2.09442 C 94.041798,119.06447 89.055636,110.8461 80.273554,94.395735 73.86529,82.391946 70.013065,75.422377 69.387627,74.700562 68.86756,74.100355 67.894594,72.077213 67.63485,71.055905 c -0.400886,-1.576271 0.189942,-3.820781 1.286216,-4.88624 1.441318,-1.400802 3.695081,-1.360535 7.208624,0.128791 4.130524,1.750857 6.309346,4.029898 10.83841,11.336936 0.712298,1.149196 1.506235,2.402982 1.764305,2.786194 0.258069,0.383212 0.409823,0.733454 0.337235,0.77832 -0.324514,0.200557 5.062608,11.383018 8.149828,16.917211 6.460322,11.580873 14.493502,23.127063 25.825862,37.119833 4.13946,5.11124 11.51813,13.96375 12.22763,14.67002 0.75168,0.74825 1.34602,1.85654 1.5695,2.92671 0.22518,1.07832 -0.0851,2.0999 -0.91972,3.02821 -1.44429,1.6064 -3.87712,2.2084 -6.64179,1.64349 z"
           id="path944" />
        <path
           style="fill:#e95265;fill-opacity:1;stroke:none;stroke-width:7.91591;stroke-miterlimit:4;stroke-dasharray:none;stroke-opacity:1"
           d="m 73.554099,157.50538 c 2.58578,-0.52834 3.31255,-1.01222 6.48566,-4.31809 4.73225,-4.93023 9.31474,-9.94234 14.05077,-15.36807 2.9568,-3.3874 6.841931,-8.03535 6.943671,-8.30702 0.0432,-0.11519 0.71478,-1.05768 1.49253,-2.09442 6.26651,-8.35331 11.25267,-16.57168 20.03476,-33.022045 6.40826,-12.003789 10.26048,-18.973358 10.88592,-19.695173 0.52007,-0.600207 1.49304,-2.623349 1.75278,-3.644657 0.40089,-1.576271 -0.18994,-3.820781 -1.28622,-4.88624 -1.44131,-1.400802 -3.69508,-1.360535 -7.20862,0.128791 -4.13052,1.750857 -6.30935,4.029898 -10.83841,11.336936 -0.7123,1.149196 -1.50624,2.402982 -1.76431,2.786194 -0.25806,0.383212 -0.40982,0.733454 -0.33723,0.77832 0.32451,0.200557 -5.06261,11.383018 -8.14983,16.917211 -6.460314,11.580873 -14.493491,23.127063 -25.825851,37.119833 -4.13946,5.11124 -11.51813,13.96375 -12.22763,14.67002 -0.75168,0.74825 -1.34602,1.85654 -1.5695,2.92671 -0.22518,1.07832 0.0851,2.0999 0.91972,3.02821 1.44429,1.6064 3.87712,2.2084 6.64179,1.64349 z"
           id="path946" />
      </g>
      <path
         style="fill:#3d00a1;fill-opacity:1;stroke:none;stroke-width:0.270756px;stroke-linecap:butt;stroke-linejoin:miter;stroke-opacity:1"
         d="m 76.841477,66.609915 c -2.007048,-0.914559 -4.753049,-1.962334 -6.812447,-1.122667 -1.874323,0.764206 -2.398029,2.914383 -2.505287,4.57121 -0.107535,1.660647 1.906283,4.758282 1.906283,4.758282 C 61.653949,74.009151 45.893358,55.200815 30.690901,49.679849 26.856954,48.287502 21.807531,46.1958 18.214508,47.940242 c -2.710813,1.316026 -4.441566,5.102928 -2.715431,7.200526 19.442102,23.626233 44.518051,49.931462 53.398973,78.296052 1.071139,3.42106 3.192848,11.12664 -0.545399,15.29774 -3.04833,3.4013 -2.085755,5.90363 0.394733,7.44233 2.574593,1.59706 7.679264,0.57605 9.659726,-1.47843 15.058263,-15.62101 23.0158,-25.75693 23.0158,-25.75693 0,0 7.9576,10.13592 23.01595,25.75693 1.98047,2.05448 7.08517,3.07549 9.65978,1.47843 2.48051,-1.5387 3.44308,-4.04103 0.39474,-7.44233 -3.73827,-4.1711 -1.61655,-11.87668 -0.54541,-15.29774 8.88098,-28.36459 33.95708,-54.669819 53.39924,-78.296052 1.72612,-2.097598 -0.005,-5.8845 -2.71543,-7.200526 -3.59303,-1.744442 -8.64246,0.34726 -12.47644,1.739607 -15.20255,5.520966 -30.96322,24.329302 -38.73934,25.136891 0,0 2.01383,-3.097635 1.90628,-4.758282 -0.10725,-1.656827 -0.63096,-3.807004 -2.50529,-4.57121 -2.05941,-0.839667 -4.80867,0.203717 -6.8125,1.122667 -10.7222,4.917207 -10.9685,21.95639 -24.58158,21.983173 C 87.809936,88.566305 87.634053,71.527784 76.841477,66.609915 Z"
         id="path862"
         sodipodi:nodetypes="aaacaasssascsasssaacaaaca" />
      <path
         style="fill:#e95265;fill-opacity:1;stroke:none;stroke-width:0.267634px;stroke-linecap:butt;stroke-linejoin:miter;stroke-opacity:1;filter:url(#filter2054)"
         d="m 100.89255,88.92945 c 0,0 -6.26812,-27.414291 -14.261337,-38.527047 -1.788477,-2.486473 -6.130189,-2.872574 -7.1532,-5.760814 -0.365416,-1.031669 -0.309668,-2.766212 0.689025,-3.210692 2.206158,-0.981874 4.750658,1.74717 6.274856,3.622436 9.707151,11.942998 14.450656,43.876117 14.450656,43.876117 z"
         id="path1574"
         sodipodi:nodetypes="caaaac" />
      <path
         style="fill:#3d00a1;fill-opacity:1;stroke:none;stroke-width:0.264583px;stroke-linecap:butt;stroke-linejoin:miter;stroke-opacity:1"
         d="m 101.19329,88.92945 c 0,0 -6.201902,-27.078949 -14.110668,-38.05577 -1.769582,-2.456058 -6.065422,-2.837436 -7.077625,-5.690346 -0.361555,-1.019049 -0.306396,-2.732374 0.681746,-3.171417 2.182849,-0.969864 4.700465,1.725798 6.20856,3.578125 9.604592,11.796907 14.297987,43.339408 14.297987,43.339408 z"
         id="path1570"
         sodipodi:nodetypes="caaaac" />
      <path
         style="fill:#e95265;fill-opacity:1;stroke:none;stroke-width:0.267634px;stroke-linecap:butt;stroke-linejoin:miter;stroke-opacity:1;filter:url(#filter2050)"
         d="m 100.66412,88.92945 c 0,0 6.26816,-27.414291 14.26143,-38.527047 1.78848,-2.486473 6.13021,-2.872574 7.15323,-5.760814 0.36541,-1.031669 0.30967,-2.766212 -0.68903,-3.210692 -2.20617,-0.981874 -4.75068,1.74717 -6.27488,3.622436 -9.70721,11.942998 -14.45075,43.876117 -14.45075,43.876117 z"
         id="path1576"
         sodipodi:nodetypes="caaaac" />
      <path
         style="fill:#3d00a1;fill-opacity:1;stroke:none;stroke-width:0.264583px;stroke-linecap:butt;stroke-linejoin:miter;stroke-opacity:1"
         d="m 100.96727,88.92945 c 0,0 6.20194,-27.078949 14.11075,-38.05577 1.76959,-2.456058 6.06545,-2.837436 7.07766,-5.690346 0.36155,-1.019049 0.3064,-2.732374 -0.68175,-3.171417 -2.18286,-0.969864 -4.70049,1.725798 -6.20859,3.578125 -9.60465,11.796907 -14.29807,43.339408 -14.29807,43.339408 z"
         id="path1572"
         sodipodi:nodetypes="caaaac" />
    </g>
  </g>
</svg>
