<?xml version="1.0" encoding="UTF-8" standalone="no"?>
<svg
   xmlns:dc="http://purl.org/dc/elements/1.1/"
   xmlns:cc="http://creativecommons.org/ns#"
   xmlns:rdf="http://www.w3.org/1999/02/22-rdf-syntax-ns#"
   xmlns:svg="http://www.w3.org/2000/svg"
   xmlns="http://www.w3.org/2000/svg"
   xmlns:xlink="http://www.w3.org/1999/xlink"
   xmlns:sodipodi="http://sodipodi.sourceforge.net/DTD/sodipodi-0.dtd"
   xmlns:inkscape="http://www.inkscape.org/namespaces/inkscape"
   width="300"
   height="300"
   viewBox="0 0 79.374998 79.375002"
   version="1.1"
   id="svg8"
   inkscape:version="1.0.1 (1.0.1+r73)"
   sodipodi:docname="materialdatascience.svg">
  <defs
     id="defs2">
    <linearGradient
       inkscape:collect="always"
       id="linearGradient879">
      <stop
         style="stop-color:#ff4b9b;stop-opacity:1;"
         offset="0"
         id="stop875" />
      <stop
         style="stop-color:#ff554b;stop-opacity:1"
         offset="1"
         id="stop877" />
    </linearGradient>
    <linearGradient
       inkscape:collect="always"
       id="linearGradient871">
      <stop
         style="stop-color:#714bff;stop-opacity:1;"
         offset="0"
         id="stop867" />
      <stop
         style="stop-color:#714bff;stop-opacity:0.61492354"
         offset="1"
         id="stop869" />
    </linearGradient>
    <linearGradient
       inkscape:collect="always"
       xlink:href="#linearGradient871"
       id="linearGradient873"
       x1="26.489138"
       y1="106.64557"
       x2="111.37874"
       y2="106.64557"
       gradientUnits="userSpaceOnUse" />
    <linearGradient
       inkscape:collect="always"
       xlink:href="#linearGradient879"
       id="linearGradient881"
       x1="100.8051"
       y1="548.90564"
       x2="420.40161"
       y2="548.90564"
       gradientUnits="userSpaceOnUse" />
    <linearGradient
       inkscape:collect="always"
       xlink:href="#linearGradient871"
       id="linearGradient887"
       gradientUnits="userSpaceOnUse"
       x1="26.489138"
       y1="106.64557"
       x2="111.37874"
       y2="106.64557" />
  </defs>
  <sodipodi:namedview
     id="base"
     pagecolor="#ffffff"
     bordercolor="#666666"
     borderopacity="1.0"
     inkscape:pageopacity="0.0"
     inkscape:pageshadow="2"
     inkscape:zoom="1.1762449"
     inkscape:cx="118.23277"
     inkscape:cy="206.65898"
     inkscape:document-units="mm"
     inkscape:current-layer="layer1"
     inkscape:document-rotation="0"
     showgrid="false"
     units="px"
     inkscape:window-width="1920"
     inkscape:window-height="1016"
     inkscape:window-x="0"
     inkscape:window-y="27"
     inkscape:window-maximized="1" />
  <metadata
     id="metadata5">
    <rdf:RDF>
      <cc:Work
         rdf:about="">
        <dc:format>image/svg+xml</dc:format>
        <dc:type
           rdf:resource="http://purl.org/dc/dcmitype/StillImage" />
        <dc:title></dc:title>
      </cc:Work>
    </rdf:RDF>
  </metadata>
  <g
     inkscape:label="Layer 1"
     inkscape:groupmode="layer"
     id="layer1">
    <g
       id="g931"
       transform="matrix(0.62540836,0,0,0.62540836,0.15707957,-31.353895)">
      <g
         id="g885"
         transform="translate(15.287174,-3.77705)">
        <path
           style="fill:url(#linearGradient887);fill-opacity:1;stroke:none;stroke-width:7.56645"
           d="m 48.348083,157.72275 -20.425584,-0.0574 -0.714583,-1.51715 c -0.625971,-1.32902 -0.71509,-1.75424 -0.718678,-3.42913 -0.0035,-1.64458 0.08285,-2.08501 0.617591,-3.14915 0.384138,-0.76444 7.023774,-8.97168 17.376536,-21.47909 L 61.238212,107.84887 V 81.697141 55.545407 h 7.87287 7.87286 l 0.008,26.149157 0.008,26.149156 16.5431,20.24451 c 9.098708,11.13448 16.802878,20.75062 17.120388,21.3692 0.83291,1.62272 0.94384,3.69052 0.30442,5.67458 -0.27005,0.83791 -0.66307,1.74952 -0.87338,2.0258 l -0.3824,0.50233 -20.469438,0.06 c -11.2582,0.033 -29.66096,0.0342 -40.895035,0.003 z"
           id="path853" />
        <path
           style="fill:url(#linearGradient881);fill-opacity:1;stroke:none;stroke-width:28.5976"
           d="m 103.32057,590.29736 c -2.19158,-4.6326 -2.51488,-6.27542 -2.51547,-12.78205 -4e-4,-4.47926 0.47568,-8.60631 1.19003,-10.31597 1.0066,-2.40915 15.33588,-20.76526 33.61632,-43.06323 l 4.57858,-5.58484 6.70839,2.90032 c 3.68961,1.59517 9.79465,3.50834 13.56674,4.25149 13.37608,2.63523 24.15058,-0.70686 37.68294,-11.6887 4.20831,-3.41514 9.2062,-6.90763 11.10641,-7.76108 4.08017,-1.83254 16.28284,-3.22957 33.95223,-3.88704 9.9731,-0.37109 14.42006,-0.16111 20.40392,0.96343 10.77233,2.02444 27.95181,7.94214 42.23011,14.54672 16.8058,7.7737 22.32267,9.67989 28.077,9.70119 5.7911,0.0214 14.71786,-2.63574 30.01213,-8.93354 6.07867,-2.50304 11.50791,-4.66916 12.06499,-4.8136 0.55707,-0.14444 6.42587,6.42163 13.04175,14.59126 22.1679,27.37407 28.91399,36.38191 30.30566,40.46623 1.97311,5.79077 1.12275,14.8897 -1.99256,21.32054 l -2.41006,4.97501 -154.55215,0.21484 -154.55215,0.21482 z"
           id="path865"
           transform="scale(0.26458333)" />
      </g>
      <g
         id="g917"
         transform="matrix(0.72079575,0,0,0.72079575,65.627692,53.153831)">
        <path
           style="fill:#7abcff;fill-opacity:1;stroke:none;stroke-width:5.90892;stroke-miterlimit:4;stroke-dasharray:none;stroke-opacity:1"
           d="m -3.7709908,128.47844 c -0.3274444,-0.0579 -1.2383354,-0.21751 -2.0242021,-0.35465 -9.0502221,-1.57931 -17.4014891,-7.75917 -21.8914751,-16.19947 -1.16743,-2.19454 -2.497596,-6.00989 -3.022516,-8.66955 -0.499211,-2.52941 -0.430071,-9.243103 0.121396,-11.787996 2.534546,-11.696359 11.279197,-20.901337 22.6493223,-23.841601 3.7714267,-0.975277 8.9707091,-1.209843 12.7626351,-0.575789 6.5223076,1.090611 12.2037286,4.017813 16.8859726,8.700056 4.682244,4.682242 7.609444,10.363664 8.700054,16.885972 0.634054,3.791927 0.399488,8.991198 -0.575786,12.762628 -2.899843,11.2138 -11.880137,19.87579 -23.3653191,22.53713 -1.9535314,0.45268 -8.7220776,0.81177 -10.2400817,0.54327 z"
           id="path897" />
        <g
           id="g895"
           transform="translate(-53.132868,-42.039879)">
          <circle
             style="fill:none;fill-opacity:1;stroke:#1b0079;stroke-width:8.9;stroke-opacity:1"
             id="path889"
             cx="52.834843"
             cy="139.54822"
             r="33.853535" />
          <path
             style="fill:#1b0079;fill-opacity:1;stroke:#1b0079;stroke-width:6.565;stroke-linecap:butt;stroke-linejoin:miter;stroke-miterlimit:4;stroke-dasharray:none;stroke-opacity:1"
             d="m 23.662842,159.28805 -57.06858,33.48918 10.792246,14.13513 49.616838,-42.38423 z"
             id="path891" />
        </g>
        <path
           style="fill:none;stroke:#000000;stroke-width:1.865;stroke-linecap:butt;stroke-linejoin:miter;stroke-miterlimit:4;stroke-dasharray:none;stroke-opacity:1"
           d="M -18.380482,83.857885 V 111.36184 H 20.34874"
           id="path899" />
        <rect
           style="fill:#ff0051;fill-opacity:1;stroke:none;stroke-width:1.865;stroke-miterlimit:4;stroke-dasharray:none;stroke-opacity:1"
           id="rect903"
           width="7.8222585"
           height="18.016584"
           x="-12.998752"
           y="91.159279" />
        <rect
           style="fill:#ff0088;fill-opacity:1;stroke:none;stroke-width:1.865;stroke-miterlimit:4;stroke-dasharray:none;stroke-opacity:1"
           id="rect905"
           width="7.9301419"
           height="23.979202"
           x="-3.8961232"
           y="85.142891" />
        <rect
           style="fill:#2300b1;fill-opacity:1;stroke:none;stroke-width:1.865;stroke-miterlimit:4;stroke-dasharray:none;stroke-opacity:1"
           id="rect907"
           width="7.4694047"
           height="13.285163"
           x="6.3075857"
           y="95.821671" />
      </g>
    </g>
  </g>
</svg>
