<?xml version="1.0" encoding="UTF-8" standalone="no"?>
<svg
   xmlns:dc="http://purl.org/dc/elements/1.1/"
   xmlns:cc="http://creativecommons.org/ns#"
   xmlns:rdf="http://www.w3.org/1999/02/22-rdf-syntax-ns#"
   xmlns:svg="http://www.w3.org/2000/svg"
   xmlns="http://www.w3.org/2000/svg"
   xmlns:sodipodi="http://sodipodi.sourceforge.net/DTD/sodipodi-0.dtd"
   xmlns:inkscape="http://www.inkscape.org/namespaces/inkscape"
   width="48"
   height="48"
   viewBox="0 0 12.7 12.7"
   version="1.1"
   id="svg8"
   inkscape:version="1.0.1 (1.0.1+r74)"
   sodipodi:docname="bootstrap.svg">
  <defs
     id="defs2" />
  <sodipodi:namedview
     id="base"
     pagecolor="#ffffff"
     bordercolor="#666666"
     borderopacity="1.0"
     inkscape:pageopacity="0.0"
     inkscape:pageshadow="2"
     inkscape:zoom="11.798967"
     inkscape:cx="18.588779"
     inkscape:cy="22.33564"
     inkscape:document-units="mm"
     inkscape:current-layer="layer1"
     inkscape:document-rotation="0"
     showgrid="false"
     units="px"
     inkscape:window-width="1920"
     inkscape:window-height="1016"
     inkscape:window-x="0"
     inkscape:window-y="27"
     inkscape:window-maximized="1" />
  <metadata
     id="metadata5">
    <rdf:RDF>
      <cc:Work
         rdf:about="">
        <dc:format>image/svg+xml</dc:format>
        <dc:type
           rdf:resource="http://purl.org/dc/dcmitype/StillImage" />
        <dc:title></dc:title>
      </cc:Work>
    </rdf:RDF>
  </metadata>
  <g
     inkscape:label="Layer 1"
     inkscape:groupmode="layer"
     id="layer1">
    <rect
       style="fill:#ffffff;stroke-width:0.79375"
       id="rect867"
       width="9.6012373"
       height="10.292068"
       x="1.7286007"
       y="1.2507291" />
    <path
       style="fill:#6639b5;stroke-width:0.0105876"
       d="M 1.530537,12.687219 C 0.81974464,12.590077 0.23666047,12.075002 0.05820667,11.386618 -0.00470267,11.143945 -0.00108679,11.471694 0.0020713,6.298071 0.00476841,1.880742 0.00618819,1.5536201 0.02305709,1.4644857 0.09343788,1.0925923 0.25958385,0.7745238 0.51787834,0.51720532 0.77740772,0.25865635 1.0804337,0.09929435 1.4583351,0.02261682 1.5455683,0.00491689 1.8071478,0.00374802 6.2938309,0.00100898 10.46883,-0.00153967 11.051833,2.4175262e-5 11.160038,0.01406156 c 0.767037,0.09950943 1.359187,0.65687785 1.515019,1.42603054 l 0.02431,0.1199982 v 4.7803312 c 0,4.5961515 -7.52e-4,4.7845845 -0.0195,4.8907385 -0.06576,0.372397 -0.230288,0.690073 -0.493937,0.953721 -0.258756,0.258757 -0.56024,0.416901 -0.94237,0.494323 -0.08427,0.01708 -0.392609,0.01837 -4.8491503,0.02028 -3.9482256,0.0017 -4.7769991,-4e-4 -4.8638767,-0.01227 z m 5.65042,-2.112036 C 8.4424992,10.499776 9.2675767,10.065528 9.6390599,9.2814528 9.7923058,8.9580016 9.8635258,8.628773 9.8746215,8.19253 9.8835047,7.843252 9.8568946,7.6313725 9.772184,7.3769 9.5998835,6.8593054 9.2195523,6.4857302 8.6791252,6.3032587 L 8.5556198,6.261558 8.6276638,6.2236481 C 8.8598975,6.1014446 9.1237622,5.8384122 9.2737324,5.5796162 9.6228057,4.977237 9.6112173,3.9997909 9.2476626,3.3807024 9.0762513,3.0888094 8.859076,2.876104 8.4946361,2.6431731 8.0088546,2.3326869 7.4882375,2.172224 6.8197253,2.1269375 6.7178876,2.1200391 6.0088704,2.115943 4.9165922,2.115943 H 3.1757637 v 4.2350664 4.2350656 h 1.9114827 c 1.1848292,0 1.9807573,-0.0041 2.0937106,-0.01089 z M 5.2932967,8.1196695 V 7.0603829 h 0.9427485 c 0.8204593,0 0.9533345,0.00219 1.0243567,0.016835 0.2196471,0.045312 0.3893193,0.1357459 0.5429762,0.2894028 0.1381101,0.13811 0.230724,0.3007126 0.2808737,0.4931309 0.023047,0.088427 0.027632,0.1294338 0.027825,0.2488102 4.884e-4,0.3033545 -0.096944,0.5409901 -0.3085909,0.7526363 -0.1171015,0.117102 -0.2331913,0.1932791 -0.3699733,0.2427722 -0.1934412,0.069995 -0.1357576,0.06654 -1.1846795,0.070959 l -0.9555366,0.00403 z m 0,-3.6215017 V 3.5241023 l 0.7596649,3.16e-5 c 0.4761567,2.12e-5 0.7952269,0.00428 0.8549541,0.011428 0.3168469,0.037897 0.598306,0.2322939 0.7427356,0.5129884 0.078126,0.1518326 0.1095711,0.2808677 0.1095711,0.449618 0,0.1687498 -0.031445,0.2977855 -0.1095711,0.4496196 -0.1444296,0.2806944 -0.4258887,0.4750911 -0.7427356,0.5129887 -0.059727,0.00714 -0.3787974,0.011409 -0.8549541,0.011427 l -0.7596649,3e-5 z"
       id="path847" />
  </g>
</svg>
