<?xml version="1.0" encoding="UTF-8" standalone="no"?>
<svg
   xmlns:dc="http://purl.org/dc/elements/1.1/"
   xmlns:cc="http://creativecommons.org/ns#"
   xmlns:rdf="http://www.w3.org/1999/02/22-rdf-syntax-ns#"
   xmlns:svg="http://www.w3.org/2000/svg"
   xmlns="http://www.w3.org/2000/svg"
   xmlns:sodipodi="http://sodipodi.sourceforge.net/DTD/sodipodi-0.dtd"
   xmlns:inkscape="http://www.inkscape.org/namespaces/inkscape"
   width="48"
   height="48"
   viewBox="0 0 12.7 12.7"
   version="1.1"
   id="svg8"
   inkscape:version="1.0.1 (1.0.1+r74)"
   sodipodi:docname="freepik.svg">
  <defs
     id="defs2" />
  <sodipodi:namedview
     id="base"
     pagecolor="#ffffff"
     bordercolor="#666666"
     borderopacity="1.0"
     inkscape:pageopacity="0.0"
     inkscape:pageshadow="2"
     inkscape:zoom="11.648544"
     inkscape:cx="42.439536"
     inkscape:cy="27.344375"
     inkscape:document-units="mm"
     inkscape:current-layer="g865"
     inkscape:document-rotation="0"
     showgrid="false"
     units="px"
     inkscape:window-width="1920"
     inkscape:window-height="1016"
     inkscape:window-x="0"
     inkscape:window-y="27"
     inkscape:window-maximized="1" />
  <metadata
     id="metadata5">
    <rdf:RDF>
      <cc:Work
         rdf:about="">
        <dc:format>image/svg+xml</dc:format>
        <dc:type
           rdf:resource="http://purl.org/dc/dcmitype/StillImage" />
        <dc:title></dc:title>
      </cc:Work>
    </rdf:RDF>
  </metadata>
  <g
     inkscape:label="Layer 1"
     inkscape:groupmode="layer"
     id="layer1">
    <g
       id="g865"
       transform="translate(-35.701578,-73.29181)">
      <g
         id="g893"
         transform="matrix(0.90153573,0,0,0.90153573,3.8222557,7.8342676)">
        <ellipse
           style="fill:#ffffff;fill-opacity:1;stroke:none;stroke-width:1.11862"
           id="path889"
           cx="42.404667"
           cy="79.650246"
           rx="7.0435367"
           ry="5.9157262" />
        <path
           style="fill:#1071ea;stroke-width:0.0590669"
           d="m 41.631203,85.329371 c -1.127896,-0.18437 -2.020633,-0.62059 -2.826554,-1.38114 -0.308314,-0.29096 -0.77472,-0.88271 -0.730551,-0.92688 0.01482,-0.0148 0.156732,0.002 0.315355,0.0385 1.11779,0.2536 3.337856,0.34036 4.570754,0.17863 1.487514,-0.19514 2.807545,-0.55606 3.806435,-1.04074 0.291679,-0.14153 0.541909,-0.24573 0.556072,-0.23157 0.05751,0.0575 -0.252392,0.73568 -0.529699,1.15918 -0.284845,0.43501 -0.801248,0.98018 -1.233866,1.30261 -0.316793,0.2361 -1.104885,0.61234 -1.565272,0.74726 -0.445619,0.13059 -1.267931,0.24913 -1.652323,0.23818 -0.130799,-0.004 -0.450457,-0.0415 -0.710351,-0.084 z m -2.008274,-2.66332 c -1.20364,-0.13004 -1.931024,-0.36138 -2.040345,-0.64891 -0.106627,-0.28045 -0.06731,-1.46127 0.06521,-1.95839 0.417235,-1.56516 1.799667,-2.90225 3.451806,-3.33859 0.747986,-0.19755 1.428608,-0.23977 2.152889,-0.13355 2.271131,0.33306 3.878142,1.83614 4.259385,3.9839 l 0.07754,0.43684 -0.173431,0.14149 c -0.299305,0.24417 -1.101191,0.65646 -1.682208,0.8649 -0.999542,0.35859 -1.848766,0.53627 -3.152224,0.65953 -1.12429,0.10633 -1.925779,0.10437 -2.958624,-0.007 z m 1.769956,-1.20861 c 0.334988,-0.15747 0.71327,-0.56677 0.794639,-0.85982 0.188439,-0.67864 -0.105336,-1.3572 -0.733522,-1.69428 -0.327042,-0.1755 -1.154025,-0.18378 -1.417605,-0.0142 -0.553054,0.35581 -0.797404,0.74195 -0.797404,1.26012 0,0.59603 0.336652,1.09833 0.900319,1.3433 0.298501,0.12973 0.94117,0.11172 1.253573,-0.0351 z m 3.812204,-0.70374 c 0.357286,-0.18228 0.53126,-0.48304 0.53126,-0.91844 0,-0.3261 -0.01939,-0.38226 -0.208304,-0.60295 -0.263549,-0.3079 -0.503452,-0.42764 -0.85676,-0.42764 -0.458828,0 -0.850311,0.23437 -1.054125,0.63108 -0.09228,0.17962 -0.08282,0.64261 0.01704,0.83376 0.09049,0.17321 0.348704,0.42991 0.536875,0.53373 0.199376,0.11 0.775385,0.0824 1.034012,-0.0495 z m -8.52374,-0.53272 c -0.123478,-0.0221 -0.24949,-0.0651 -0.280029,-0.0957 -0.0542,-0.0542 0.132652,-0.73459 0.303356,-1.10461 0.07121,-0.15436 0.06578,-0.1768 -0.06741,-0.27808 -0.09745,-0.0741 -0.229195,-0.10668 -0.402434,-0.0995 -0.215453,0.009 -0.280629,-0.0162 -0.398701,-0.15344 -0.180696,-0.21008 -0.179361,-0.42 0.0038,-0.60319 0.232258,-0.23226 0.518762,-0.19985 0.807002,0.0913 0.128655,0.12995 0.280968,0.23627 0.338474,0.23627 0.06088,0 0.269399,-0.20973 0.49917,-0.50207 0.237516,-0.30219 0.43749,-0.50207 0.502313,-0.50207 0.05923,0 0.182552,0.0781 0.27404,0.17362 l 0.166341,0.17363 -0.263902,0.31368 c -0.546404,0.64946 -0.845271,1.18447 -1.049616,1.87895 -0.07169,0.24365 -0.147806,0.45839 -0.169142,0.4772 -0.02134,0.0188 -0.139818,0.0161 -0.263296,-0.006 z m 10.775061,-1.58841 c -0.321291,-0.54082 -0.882488,-1.15222 -1.409959,-1.53609 -0.235529,-0.17141 -0.428236,-0.33976 -0.428236,-0.37412 0,-0.0344 0.06813,-0.15181 0.151402,-0.26098 l 0.1514,-0.1985 0.43265,0.29909 c 0.237955,0.1645 0.479615,0.35099 0.537022,0.41443 0.05741,0.0634 0.136541,0.11533 0.175855,0.11533 0.123598,0 0.382744,-0.23996 0.382744,-0.3544 0,-0.14855 0.274468,-0.35441 0.472535,-0.35441 0.434901,0 0.650666,0.56012 0.316902,0.82266 -0.0856,0.0673 -0.217016,0.12242 -0.292039,0.12242 -0.07502,0 -0.203391,0.0598 -0.285261,0.1329 l -0.148851,0.1329 0.355134,0.52456 c 0.35437,0.52343 0.398751,0.6663 0.231317,0.74463 -0.04873,0.0228 -0.148045,0.0722 -0.220699,0.1097 -0.07266,0.0375 -0.142722,0.0682 -0.155702,0.0682 -0.01299,0 -0.132779,-0.18376 -0.266214,-0.40836 z m -7.509261,-2.38255 c -0.06437,-0.10558 -0.117144,-0.22613 -0.117265,-0.26789 -3.97e-4,-0.11713 0.461281,-0.28943 1.417384,-0.52904 0.193392,-0.0485 0.205649,-0.0656 0.189916,-0.26574 -0.01097,-0.13957 -0.0777,-0.2791 -0.191968,-0.40143 -0.289905,-0.31034 -0.184719,-0.70857 0.232844,-0.88154 0.218706,-0.0906 0.551861,0.003 0.684561,0.1926 0.114504,0.16348 0.114612,0.53711 1.93e-4,0.63207 -0.05368,0.0445 -0.0886,0.17388 -0.0886,0.32812 0,0.30549 0.0019,0.3063 0.76787,0.31927 0.308624,0.005 0.654165,0.0295 0.767869,0.054 0.201812,0.0435 0.206324,0.0507 0.189512,0.30406 -0.0095,0.14274 -0.02621,0.26851 -0.03719,0.27949 -0.01098,0.011 -0.296792,-0.008 -0.635134,-0.0426 -0.922625,-0.0939 -2.033727,0.0517 -2.755997,0.36097 -0.140756,0.0603 -0.267402,0.1096 -0.28143,0.1096 -0.01403,0 -0.07818,-0.0864 -0.142549,-0.19197 z"
           id="path867" />
      </g>
    </g>
  </g>
</svg>
