<?xml version="1.0" encoding="UTF-8" standalone="no"?>
<svg
   xmlns:dc="http://purl.org/dc/elements/1.1/"
   xmlns:cc="http://creativecommons.org/ns#"
   xmlns:rdf="http://www.w3.org/1999/02/22-rdf-syntax-ns#"
   xmlns:svg="http://www.w3.org/2000/svg"
   xmlns="http://www.w3.org/2000/svg"
   xmlns:sodipodi="http://sodipodi.sourceforge.net/DTD/sodipodi-0.dtd"
   xmlns:inkscape="http://www.inkscape.org/namespaces/inkscape"
   version="1.1"
   id="Capa_1"
   x="0px"
   y="0px"
   viewBox="0 0 512 512"
   style="enable-background:new 0 0 512 512;"
   xml:space="preserve"
   sodipodi:docname="github.svg"
   inkscape:version="1.0.1 (1.0.1+r74)"><metadata
   id="metadata39"><rdf:RDF><cc:Work
       rdf:about=""><dc:format>image/svg+xml</dc:format><dc:type
         rdf:resource="http://purl.org/dc/dcmitype/StillImage" /></cc:Work></rdf:RDF></metadata><defs
   id="defs37" /><sodipodi:namedview
   pagecolor="#ffffff"
   bordercolor="#666666"
   borderopacity="1"
   objecttolerance="10"
   gridtolerance="10"
   guidetolerance="10"
   inkscape:pageopacity="0"
   inkscape:pageshadow="2"
   inkscape:window-width="1920"
   inkscape:window-height="1016"
   id="namedview35"
   showgrid="false"
   inkscape:zoom="1.157097"
   inkscape:cx="187.63374"
   inkscape:cy="259.77511"
   inkscape:window-x="0"
   inkscape:window-y="27"
   inkscape:window-maximized="1"
   inkscape:current-layer="Capa_1" />

<g
   id="g4">
</g>
<g
   id="g6">
</g>
<g
   id="g8">
</g>
<g
   id="g10">
</g>
<g
   id="g12">
</g>
<g
   id="g14">
</g>
<g
   id="g16">
</g>
<g
   id="g18">
</g>
<g
   id="g20">
</g>
<g
   id="g22">
</g>
<g
   id="g24">
</g>
<g
   id="g26">
</g>
<g
   id="g28">
</g>
<g
   id="g30">
</g>
<g
   id="g32">
</g>
<path
   style="fill:#ffffff;fill-opacity:1;stroke:#ffffff;stroke-width:3;stroke-miterlimit:4;stroke-dasharray:none;stroke-opacity:1"
   d="m 228.8676,511.68917 c -10.2005,-1.0622 -23.51518,-3.24024 -32.81934,-5.36866 l -8.00589,-1.83142 1.65737,-1.79666 c 3.16507,-3.43107 3.57103,-7.62205 2.9817,-30.78189 l -0.56163,-22.07139 -6.56419,1.23442 c -10.35631,1.94756 -30.05404,1.62739 -38.54077,-0.62642 -18.95641,-5.03423 -33.31322,-17.08368 -40.28906,-33.81397 -7.92813,-19.01421 -16.057499,-30.18398 -27.779771,-38.16946 -6.522721,-4.44343 -11.008378,-8.99278 -11.008378,-11.16466 0,-4.15618 11.230061,-5.52897 20.866587,-2.55079 11.1173,3.43582 20.583382,11.46811 30.082262,25.52584 12.39652,18.34604 26.84732,27.14808 44.66935,27.2083 9.26351,0.0313 27.07325,-4.55654 29.47935,-7.59395 0.59416,-0.75005 1.08549,-2.35888 1.09185,-3.57519 0.0179,-3.42483 4.65425,-15.94238 7.61219,-20.55192 1.46225,-2.27873 3.86002,-5.37194 5.32837,-6.87381 1.46835,-1.50186 2.36328,-2.90863 1.98872,-3.12616 -0.37456,-0.21752 -3.01444,-0.66371 -5.86641,-0.99153 -23.99132,-2.75766 -49.60831,-11.47404 -65.57532,-22.31253 -6.91865,-4.69641 -16.93322,-14.3535 -22.06333,-21.27576 -13.53744,-18.26658 -21.051353,-43.39415 -22.257233,-74.43126 -1.178411,-30.33005 5.684152,-51.58792 24.060023,-74.52971 1.8497,-2.30931 1.86158,-2.476 0.49274,-6.91385 -4.96054,-16.08232 -4.35361,-37.23567 1.61,-56.11383 2.48093,-7.85356 3.05409,-8.19119 12.23747,-7.20872 13.31063,1.42401 33.35325,9.62935 51.59782,21.12387 l 8.62181,5.43195 7.56951,-1.822 c 22.19104,-5.34143 49.22874,-7.72327 70.35635,-6.19793 16.12459,1.16414 27.33974,2.74519 40.73561,5.74268 l 9.72725,2.1766 8.42161,-5.30456 c 10.45195,-6.58342 26.98403,-14.69023 35.9042,-17.60629 7.89409,-2.58061 19.97484,-4.50079 23.20927,-3.689 2.61633,0.65666 4.03213,3.65119 6.73931,14.25416 4.30951,16.87867 4.12674,35.07597 -0.49792,49.57697 l -1.29073,4.04718 5.60442,7.34526 c 10.20442,13.3741 17.3559,30.79364 19.6399,47.83876 1.39548,10.41415 0.50777,34.18477 -1.76475,47.25549 -5.48539,31.55009 -20.12123,55.76878 -42.86532,70.9315 -15.2859,10.19059 -39.13586,18.21663 -63.18963,21.26469 l -7.91976,1.00359 3.95837,4.8598 c 4.61796,5.66962 8.32243,13.19317 10.81409,21.96277 1.65248,5.81603 1.80883,9.34837 2.2847,51.61546 0.39892,35.43251 0.76283,45.81437 1.66114,47.39071 0.63267,1.1102 0.9805,2.18834 0.77297,2.39588 -0.75792,0.75792 -20.2326,4.82883 -31.23726,6.52972 -12.75153,1.97088 -48.99998,2.89809 -61.67962,1.57772 z"
   id="path872" /><path
   style="fill:#5c6bc0"
   d="M 255.968,5.329123 C 114.624,5.329123 0,120.40112 0,262.35312 c 0,113.536 73.344,209.856 175.104,243.872 12.8,2.368 17.472,-5.568 17.472,-12.384 0,-6.112 -0.224,-22.272 -0.352,-43.712 -71.2,15.52 -86.24,-34.464 -86.24,-34.464 -11.616,-29.696 -28.416,-37.6 -28.416,-37.6 -23.264,-15.936 1.728,-15.616 1.728,-15.616 25.696,1.824 39.2,26.496 39.2,26.496 22.848,39.264 59.936,27.936 74.528,21.344 2.304,-16.608 8.928,-27.936 16.256,-34.368 -56.832,-6.496 -116.608,-28.544 -116.608,-127.008 0,-28.064 9.984,-51.008 26.368,-68.992 -2.656,-6.496 -11.424,-32.64 2.496,-68 0,0 21.504,-6.912 70.4,26.336 20.416,-5.696 42.304,-8.544 64.096,-8.64 21.728,0.128 43.648,2.944 64.096,8.672 48.864,-33.248 70.336,-26.336 70.336,-26.336 13.952,35.392 5.184,61.504 2.56,68 16.416,17.984 26.304,40.928 26.304,68.992 0,98.72 -59.84,120.448 -116.864,126.816 9.184,7.936 17.376,23.616 17.376,47.584 0,34.368 -0.32,62.08 -0.32,70.496 0,6.88 4.608,14.88 17.6,12.352 C 438.72,472.14512 512,375.85712 512,262.35312 512,120.40112 397.376,5.329123 255.968,5.329123 Z"
   id="path2" /></svg>
