<?xml version="1.0" encoding="UTF-8" standalone="no"?>
<svg
   xmlns:dc="http://purl.org/dc/elements/1.1/"
   xmlns:cc="http://creativecommons.org/ns#"
   xmlns:rdf="http://www.w3.org/1999/02/22-rdf-syntax-ns#"
   xmlns:svg="http://www.w3.org/2000/svg"
   xmlns="http://www.w3.org/2000/svg"
   xmlns:sodipodi="http://sodipodi.sourceforge.net/DTD/sodipodi-0.dtd"
   xmlns:inkscape="http://www.inkscape.org/namespaces/inkscape"
   width="48"
   height="48"
   viewBox="0 0 12.7 12.7"
   version="1.1"
   id="svg887"
   inkscape:version="1.0.1 (1.0.1+r73)"
   sodipodi:docname="createjs.svg">
  <defs
     id="defs881" />
  <sodipodi:namedview
     id="base"
     pagecolor="#ffffff"
     bordercolor="#666666"
     borderopacity="1.0"
     inkscape:pageopacity="0.0"
     inkscape:pageshadow="2"
     inkscape:zoom="7.1575159"
     inkscape:cx="13.226681"
     inkscape:cy="46.734348"
     inkscape:document-units="mm"
     inkscape:current-layer="layer1"
     inkscape:document-rotation="0"
     showgrid="false"
     units="px"
     inkscape:window-width="1920"
     inkscape:window-height="1016"
     inkscape:window-x="0"
     inkscape:window-y="27"
     inkscape:window-maximized="1" />
  <metadata
     id="metadata884">
    <rdf:RDF>
      <cc:Work
         rdf:about="">
        <dc:format>image/svg+xml</dc:format>
        <dc:type
           rdf:resource="http://purl.org/dc/dcmitype/StillImage" />
        <dc:title></dc:title>
      </cc:Work>
    </rdf:RDF>
  </metadata>
  <g
     inkscape:label="Layer 1"
     inkscape:groupmode="layer"
     id="layer1">
    <path
       style="fill:#3f5160;stroke-width:0.057163"
       d="M 3.5962635,11.184346 C 2.1132612,10.338125 0.8547167,9.5913865 0.79949934,9.5249302 0.70663799,9.4131644 0.6991035,9.1742356 0.6991035,6.3410147 c 0,-2.8364204 0.007423,-3.0714011 0.10039584,-3.1755048 0.0739694,-0.082833 4.53370966,-2.65464751 5.43427926,-3.13380828 0.07913,-0.04210389 0.1482779,-0.04227577 0.2294783,-4.7091e-4 0.6555955,0.33671344 5.3613881,3.04943809 5.4372411,3.13437809 0.09297,0.1041059 0.100399,0.3392327 0.100399,3.1786386 V 9.4104635 L 11.871814,9.5488188 C 11.745763,9.6839295 6.5771516,12.653866 6.3880945,12.699823 6.335543,12.712611 5.0805769,12.031415 3.5962635,11.184446 Z M 5.964937,4.7073711 5.9814659,4.2505244 4.999779,3.6913328 C 4.3428457,3.3171258 4.043214,3.1172747 4.0940274,3.0872049 4.1357908,3.0624893 4.5701138,2.8140689 5.0591892,2.5351594 L 5.948418,2.028048 5.965328,1.5841324 C 5.974628,1.3399784 5.961248,1.1193768 5.935603,1.09391 5.868378,1.027168 2.3553847,3.0442864 2.3753628,3.1381572 c 0.018,0.084519 3.4250674,2.061195 3.5156784,2.0396817 0.031554,-0.00749 0.064805,-0.2192007 0.073896,-0.4704678 z M 8.5817554,4.1995533 C 9.5472397,3.6482801 10.337181,3.1664235 10.337181,3.1287579 c 0,-0.092378 -3.5136607,-2.0935512 -3.5727888,-2.0348479 -0.025651,0.025467 -0.039027,0.2460684 -0.029723,0.4902224 l 0.01691,0.4439156 0.8892288,0.5071114 c 0.4890756,0.2789095 0.9239321,0.5276266 0.9663501,0.5527048 0.052383,0.030969 -0.2374728,0.2244724 -0.9035696,0.603212 l -0.9806933,0.557614 v 0.4765896 c 0,0.2621215 0.023265,0.4765871 0.051715,0.4765871 0.028444,0 0.8416572,-0.4510404 1.8071393,-1.0023136 z"
       id="path1550" />
  </g>
</svg>
