<?xml version="1.0" encoding="UTF-8" standalone="no"?>
<svg
   xmlns:dc="http://purl.org/dc/elements/1.1/"
   xmlns:cc="http://creativecommons.org/ns#"
   xmlns:rdf="http://www.w3.org/1999/02/22-rdf-syntax-ns#"
   xmlns:svg="http://www.w3.org/2000/svg"
   xmlns="http://www.w3.org/2000/svg"
   xmlns:sodipodi="http://sodipodi.sourceforge.net/DTD/sodipodi-0.dtd"
   xmlns:inkscape="http://www.inkscape.org/namespaces/inkscape"
   width="208"
   height="48"
   viewBox="0 0 55.03328 12.699999"
   version="1.1"
   id="svg8"
   inkscape:version="1.0.1 (1.0.1+r73)"
   sodipodi:docname="express.svg">
  <defs
     id="defs2" />
  <sodipodi:namedview
     id="base"
     pagecolor="#ffffff"
     bordercolor="#666666"
     borderopacity="1.0"
     inkscape:pageopacity="0.0"
     inkscape:pageshadow="2"
     inkscape:zoom="2.4431424"
     inkscape:cx="-19.871308"
     inkscape:cy="12.304647"
     inkscape:document-units="mm"
     inkscape:current-layer="g847"
     inkscape:document-rotation="0"
     showgrid="false"
     units="px"
     inkscape:window-width="1920"
     inkscape:window-height="1016"
     inkscape:window-x="0"
     inkscape:window-y="27"
     inkscape:window-maximized="1" />
  <metadata
     id="metadata5">
    <rdf:RDF>
      <cc:Work
         rdf:about="">
        <dc:format>image/svg+xml</dc:format>
        <dc:type
           rdf:resource="http://purl.org/dc/dcmitype/StillImage" />
        <dc:title></dc:title>
      </cc:Work>
    </rdf:RDF>
  </metadata>
  <g
     inkscape:label="Layer 1"
     inkscape:groupmode="layer"
     id="layer1">
    <g
       id="g847"
       transform="translate(1.6856698,21.076324)">
      <path
         style="fill:#3a4753;stroke:#000000;stroke-width:0.624299;stroke-miterlimit:4;stroke-dasharray:none;stroke-opacity:1"
         d="m 15.387339,-14.599952 c 0,-3.84487 0.05041,-5.911485 0.144181,-5.911485 0.08471,0 0.146518,0.520415 0.149832,1.261596 0.0054,1.230602 0.01073,1.249744 0.215148,0.779129 0.816247,-1.879738 2.807854,-2.720979 4.714815,-1.991503 0.859739,0.328879 1.738272,1.303165 2.07864,2.305203 0.351661,1.035279 0.344624,2.809233 -0.01553,3.917516 -0.37477,1.153231 -1.435648,2.250985 -2.413268,2.497153 -0.892407,0.224706 -1.355392,0.214736 -2.240987,-0.04826 -0.8372,-0.248622 -1.896095,-1.283911 -2.161506,-2.11332 -0.120458,-0.376412 -0.1567,0.133648 -0.168243,2.367846 -0.0093,1.7924687 -0.06814,2.8476063 -0.158908,2.8476063 -0.09377,0 -0.144181,-2.0666173 -0.144181,-5.9114853 z m 5.304452,2.464306 c 0.721645,-0.371197 1.245771,-0.949774 1.644625,-1.815485 0.280028,-0.607805 0.332058,-0.958442 0.331613,-2.234831 -4.32e-4,-1.283343 -0.05263,-1.629363 -0.342619,-2.271923 -0.825659,-1.829512 -2.831819,-2.572507 -4.566797,-1.691344 -1.436969,0.729809 -2.160053,2.26509 -2.05467,4.362545 0.09749,1.940414 0.702784,3.011433 2.062406,3.649295 0.784334,0.367969 2.211809,0.368819 2.925442,0.0018 z M 0.99734912,-11.84567 c -1.3634102,-0.470912 -2.09117862,-1.543987 -2.31650142,-3.415615 -0.3780511,-3.140257 1.25226582,-5.456446 3.8272094,-5.437312 2.0666514,0.01537 3.4643285,1.463701 3.6938625,3.827768 l 0.066496,0.684867 H 2.5175281 -1.2333587 l 0.090637,0.771176 c 0.27873932,2.371637 1.41079212,3.554301 3.4021958,3.554301 0.5010402,0 1.1780385,-0.0798 1.5044405,-0.177322 0.8212503,-0.245383 1.7153579,-1.172329 1.9544309,-2.026213 0.213499,-0.762546 0.4699067,-0.940475 0.3048164,-0.211522 -0.2711219,1.19713 -1.1592591,2.128038 -2.3768259,2.49129 -0.9363617,0.279357 -1.7146047,0.261313 -2.64898688,-0.06142 z m 4.97396558,-5.196452 c -0.1895469,-1.600436 -1.152032,-2.932117 -2.3865363,-3.301984 -2.0769356,-0.622265 -3.97848791,0.516729 -4.56944996,2.737014 -0.37188444,1.397194 -0.69352464,1.276948 3.41566276,1.276948 h 3.6246471 z m 25.5927363,5.196452 c -1.36341,-0.470912 -2.091179,-1.543987 -2.316502,-3.415615 -0.378051,-3.140257 1.252266,-5.456446 3.82721,-5.437312 2.066651,0.01537 3.464329,1.463701 3.693863,3.827768 l 0.0665,0.684867 h -3.750889 -3.750885 l 0.09064,0.771176 c 0.27874,2.371637 1.410791,3.554301 3.402194,3.554301 0.501042,0 1.17804,-0.0798 1.504441,-0.177322 0.821251,-0.245383 1.71536,-1.172329 1.954431,-2.026213 0.213501,-0.762546 0.469907,-0.940475 0.304817,-0.211522 -0.271121,1.19713 -1.159258,2.128038 -2.376826,2.49129 -0.93636,0.279357 -1.714604,0.261313 -2.648986,-0.06142 z m 4.973966,-5.196452 c -0.189547,-1.600436 -1.152032,-2.932117 -2.386536,-3.301984 -2.076935,-0.622265 -3.978488,0.516729 -4.569451,2.737014 -0.371884,1.397194 -0.693525,1.276948 3.415663,1.276948 h 3.624648 z m 3.620839,5.250328 c -0.867608,-0.27801 -1.625557,-0.994135 -1.829424,-1.728475 -0.198922,-0.716535 -0.205998,-1.223866 -0.01706,-1.223866 0.0793,0 0.144181,0.190423 0.144181,0.423161 0,0.946084 0.55217,1.744103 1.513917,2.187978 0.861589,0.397649 2.553998,0.371759 3.392621,-0.0519 1.172738,-0.592448 1.594623,-1.702849 1.010784,-2.660377 -0.367205,-0.602237 -0.798679,-0.811826 -2.768919,-1.345011 -2.618568,-0.708637 -3.028251,-1.033996 -3.028251,-2.404957 0,-1.30908 1.106796,-2.1135 2.90795,-2.1135 1.307366,0 2.210137,0.368301 2.687246,1.096304 0.33485,0.510938 0.579884,1.552102 0.365281,1.552102 -0.07276,0 -0.175169,-0.268163 -0.22758,-0.595921 -0.186435,-1.165894 -1.293709,-1.856204 -2.969399,-1.851211 -1.522889,0.0045 -2.593532,0.846101 -2.594745,2.039567 -8.66e-4,0.835399 0.538243,1.355855 1.778223,1.71674 3.093319,0.900285 3.404811,1.023799 3.844292,1.52434 0.359669,0.409641 0.432613,0.616634 0.432613,1.227641 0,0.963783 -0.39084,1.590433 -1.251928,2.007279 -0.84989,0.411426 -2.437784,0.505162 -3.389795,0.200106 z m 8.362589,0 c -0.867609,-0.27801 -1.625556,-0.994135 -1.829424,-1.728475 -0.198922,-0.716535 -0.205998,-1.223866 -0.01706,-1.223866 0.0793,0 0.144181,0.190423 0.144181,0.423161 0,0.946084 0.55217,1.744103 1.513918,2.187978 0.861588,0.397649 2.553999,0.371759 3.392622,-0.0519 1.172738,-0.592448 1.594623,-1.702849 1.010782,-2.660377 -0.367203,-0.602236 -0.798677,-0.811826 -2.768917,-1.345011 -2.618569,-0.708635 -3.028253,-1.033996 -3.028253,-2.404957 0,-1.30908 1.106796,-2.113499 2.90795,-2.113499 1.307366,0 2.210138,0.3683 2.687246,1.096305 0.334852,0.510936 0.579886,1.5521 0.365281,1.5521 -0.07276,0 -0.175169,-0.268163 -0.227578,-0.595921 -0.186437,-1.165894 -1.293711,-1.856203 -2.969399,-1.851211 -1.522891,0.0045 -2.593532,0.846101 -2.594747,2.039569 -8.64e-4,0.835399 0.538244,1.355853 1.778223,1.716738 3.093319,0.900285 3.404812,1.023799 3.844293,1.52434 0.359669,0.409641 0.432612,0.616634 0.432612,1.227642 0,0.963782 -0.390838,1.590432 -1.251926,2.007278 -0.849893,0.411426 -2.437785,0.505162 -3.389797,0.200106 z M 7.5530629,-12.617443 c 0.3791417,-0.495627 1.1645729,-1.511436 1.7454009,-2.257351 0.580829,-0.745916 1.0285872,-1.42778 0.9950212,-1.515253 -0.03357,-0.08747 -0.7178802,-1.026349 -1.5206982,-2.086391 -0.8028201,-1.060043 -1.4596724,-1.951571 -1.4596724,-1.981175 0,-0.263911 0.4348163,0.229691 1.6623784,1.887126 0.790651,1.067523 1.5024292,1.923191 1.5817302,1.901484 0.118696,-0.03249 1.732506,-2.070715 2.81381,-3.553807 0.144437,-0.198106 0.299763,-0.323041 0.345169,-0.277635 0.04541,0.0454 -0.598128,0.977414 -1.430074,2.071128 -0.831948,1.093715 -1.512632,2.047172 -1.512632,2.118792 0,0.07162 0.594515,0.891311 1.321146,1.821536 0.72663,0.930225 1.510668,1.934626 1.742307,2.232002 0.231638,0.297376 0.356667,0.540685 0.277844,0.540685 -0.07882,0 -0.896881,-0.973233 -1.817905,-2.162738 -0.921025,-1.189506 -1.721671,-2.160937 -1.779217,-2.158732 -0.05755,0.0022 -0.8429342,0.975435 -1.7453042,2.162737 -0.902368,1.187303 -1.7009666,2.158733 -1.7746628,2.158733 -0.073699,0 0.1762157,-0.405515 0.5553589,-0.901141 z M 24.903386,-16.11387 c 0,-2.593948 0.05464,-4.397567 0.1332,-4.397567 0.179882,0 0.236389,1.741348 0.181297,5.587073 -0.02652,1.85182 -0.102722,3.208062 -0.180229,3.208062 -0.07997,0 -0.134272,-1.77838 -0.134272,-4.397568 z m 0.438321,-2.38683 c -0.01249,-0.48272 0.823009,-1.534932 1.455745,-1.833457 0.770155,-0.36336 1.854681,-0.558746 1.854681,-0.334136 0,0.08626 -0.210868,0.158283 -0.468594,0.160028 -0.962352,0.0066 -2.065451,0.767344 -2.608428,1.799115 -0.125196,0.237901 -0.23023,0.331706 -0.233404,0.208457 z"
         id="path849" />
    </g>
  </g>
</svg>
