<?xml version="1.0" encoding="UTF-8" standalone="no"?>
<svg
   xmlns:dc="http://purl.org/dc/elements/1.1/"
   xmlns:cc="http://creativecommons.org/ns#"
   xmlns:rdf="http://www.w3.org/1999/02/22-rdf-syntax-ns#"
   xmlns:svg="http://www.w3.org/2000/svg"
   xmlns="http://www.w3.org/2000/svg"
   xmlns:sodipodi="http://sodipodi.sourceforge.net/DTD/sodipodi-0.dtd"
   xmlns:inkscape="http://www.inkscape.org/namespaces/inkscape"
   width="48"
   height="48"
   viewBox="0 0 12.7 12.7"
   version="1.1"
   id="svg887"
   inkscape:version="1.0.1 (1.0.1+r73)"
   sodipodi:docname="kicad.svg">
  <defs
     id="defs881" />
  <sodipodi:namedview
     id="base"
     pagecolor="#ffffff"
     bordercolor="#666666"
     borderopacity="1.0"
     inkscape:pageopacity="0.0"
     inkscape:pageshadow="2"
     inkscape:zoom="9.4604505"
     inkscape:cx="9.1370981"
     inkscape:cy="26.986618"
     inkscape:document-units="mm"
     inkscape:current-layer="layer1"
     inkscape:document-rotation="0"
     showgrid="false"
     units="px"
     inkscape:window-width="1920"
     inkscape:window-height="1016"
     inkscape:window-x="0"
     inkscape:window-y="27"
     inkscape:window-maximized="1" />
  <metadata
     id="metadata884">
    <rdf:RDF>
      <cc:Work
         rdf:about="">
        <dc:format>image/svg+xml</dc:format>
        <dc:type
           rdf:resource="http://purl.org/dc/dcmitype/StillImage" />
        <dc:title></dc:title>
      </cc:Work>
    </rdf:RDF>
  </metadata>
  <g
     inkscape:label="Layer 1"
     inkscape:groupmode="layer"
     id="layer1">
    <g
       id="g4150">
      <path
         style="fill:#9fa9cd;stroke-width:0.078882"
         d="M 0.71018938,8.5986435 C 0.68876779,8.5428197 0.68077696,7.645922 0.69243201,6.6055377 l 0.021191,-1.891608 1.49875779,-0.039441 c 1.1048577,0.062605 1.6416869,0.012095 2.5058853,0.023105 0.1289616,0.047995 0.1378421,0.1985617 0.118323,2.0061638 L 4.8154864,8.658029 2.7823121,8.6790852 C 1.1822832,8.6956556 0.74084023,8.6785172 0.71018938,8.5986435 Z M 1.79206,7.6128426 C 1.7742854,7.2378419 1.7911379,7.0320021 1.8356526,7.0803892 2.0412275,7.3038472 2.4111655,7.825812 2.4961331,8.0122956 2.5833469,8.2037091 2.6333622,8.224178 3.0138624,8.224178 3.3959709,8.224178 3.5449728,8.14366 3.3667251,8.0334968 3.3291455,8.0102713 3.0780618,7.6880035 2.8087613,7.3173459 L 2.3191239,6.6434232 2.8220662,6.0336454 C 3.524356,5.1821745 3.5131623,5.2266626 3.025112,5.2266626 c -0.3806515,0 -0.4284121,0.019971 -0.5187636,0.2169254 -0.054732,0.119309 -0.2426718,0.3766615 -0.417643,0.5718944 L 1.7705757,6.3704514 1.7968519,5.798557 1.823128,5.2266626 H 1.4491586 1.0751892 L 1.0521701,6.7255077 1.029151,8.2243528 1.4250938,8.2242654 1.8210367,8.224178 Z M 4.4759692,7.1594041 4.45198,6.0943644 4.1210002,6.0944512 3.7900205,6.094538 v 1.0648743 1.0648743 l 0.354969,7.64e-5 0.3549689,7.64e-5 -0.023989,-1.0650395 z M 5.826449,8.1544331 C 4.9348078,7.7369791 4.7375349,6.3169329 5.4694988,5.584969 5.8611637,5.1933041 6.2726679,5.093431 6.8042927,5.2610109 7.030738,5.3323915 7.2315905,5.4160014 7.2506318,5.4468107 7.269673,5.47762 7.204476,5.6041305 7.1057497,5.7279451 6.9492696,5.9241899 6.9042052,5.9412661 6.7543882,5.8610864 6.4922684,5.7208042 6.1904726,5.7935102 6.0065174,6.041257 5.7566896,6.3777195 5.7721338,7.1916303 6.0336279,7.4699779 6.250041,7.7003392 6.5495066,7.7312624 6.8083309,7.5499749 6.9739117,7.4339975 6.9904158,7.4408436 7.1411157,7.6880184 7.342402,8.018164 7.341928,8.0221094 7.0870268,8.1382501 6.697813,8.3155879 6.1847287,8.3221747 5.826449,8.1544331 Z m 1.8963907,0.074082 C 7.2804566,8.0403791 7.1519818,7.3655213 7.4968674,7.0415181 7.6386261,6.9083427 7.8146545,6.8467736 8.1279233,6.8207949 8.5836095,6.7830059 8.6434786,6.7331612 8.438006,6.5626339 8.3429918,6.483779 8.2414171,6.4786873 8.0077197,6.5410647 7.7103406,6.6204397 7.6995086,6.6161206 7.6193615,6.3862107 7.5740159,6.2561322 7.536915,6.1429015 7.536915,6.1345869 c 0,-0.00831 0.1928447,-0.058274 0.4285437,-0.1110214 0.5254077,-0.1175811 1.0172053,-0.011863 1.1674747,0.2509626 0.056158,0.098221 0.1172234,0.565164 0.1393853,1.0658122 l 0.039441,0.8910069 -0.433851,-0.00891 C 8.6392907,8.21754 8.3198187,8.2330784 8.1679709,8.2569689 8.016123,8.2808595 7.8158141,8.2680553 7.7228397,8.2285151 Z M 8.4677224,7.6562277 C 8.6170831,7.5068669 8.5827773,7.2775942 8.4110686,7.2775942 c -0.2495069,0 -0.4008617,0.087574 -0.4008617,0.2319384 0,0.2486114 0.2692636,0.3349466 0.4575155,0.1466951 z M 9.9729075,8.1879942 C 9.6528493,8.0086375 9.4855509,7.5757832 9.5250787,7.029319 9.5798022,6.272771 10.038279,5.830486 10.591723,6.0003429 l 0.271219,0.08324 -0.02621,-0.5075075 -0.02621,-0.5075075 0.414131,1.657e-4 0.41413,1.653e-4 v 1.582522 1.5825222 l -0.453571,-0.007 c -0.249464,-0.00385 -0.577811,0.011857 -0.729659,0.034901 -0.169167,0.025673 -0.356078,-0.00293 -0.4826405,-0.073851 z m 0.8770505,-1.068164 c 0,-0.3036956 -0.01485,-0.5521739 -0.03299,-0.5521739 -0.01814,0 -0.08456,-0.01979 -0.147593,-0.043978 -0.212772,-0.081648 -0.371591,0.1867952 -0.371591,0.6280799 0,0.4791333 0.02597,0.5202454 0.328675,0.5202454 h 0.223498 z"
         id="path4164"
         sodipodi:nodetypes="sscccscsssssssscsssscccccccccsccccccccccssssssssssssssssssssssccsssssscsscccccccssccssssscs" />
      <path
         style="fill:#7983a8;stroke-width:0.078882"
         d="M 0.76235001,8.5903359 C 0.69777651,8.5125296 0.67740247,7.9432973 0.69242452,6.6366749 L 0.71362303,4.7928117 2.206208,4.7713008 c 1.1245698,0.026298 1.626303,0.019516 2.5113082,-0.01793 0.1310944,0 0.1388016,0.1263715 0.1190687,1.9523291 L 4.8154864,8.658029 2.8344802,8.6790813 C 1.2190486,8.6962486 0.83665803,8.6798716 0.76235001,8.5903359 Z M 1.8020763,7.6522836 1.7678053,7.0803892 2.0090965,7.3564762 C 2.1418067,7.508324 2.3128299,7.7647607 2.3891482,7.9263356 2.5273296,8.2188818 2.5299658,8.2201165 3.0207616,8.222143 L 3.5136145,8.224178 2.9616001,7.4800317 C 2.6579922,7.0707512 2.4095858,6.6959184 2.4095858,6.64707 c 0,-0.048849 0.2502451,-0.3884236 0.5561002,-0.7546114 l 0.5561003,-0.665796 -0.4574978,0.00212 C 2.6224804,5.2308331 2.6005062,5.240978 2.4235375,5.524592 2.3227483,5.6861189 2.132579,5.9425166 2.0009391,6.0943644 L 1.761594,6.3704514 1.7989706,5.798557 1.8363472,5.2266626 1.4327491,5.2266237 1.029151,5.2265849 v 1.4987434 1.4987435 l 0.4035981,5.31e-5 0.4035981,5.31e-5 z M 4.521905,7.1395507 4.4999584,6.0549234 4.125269,6.0308809 3.7505796,6.0068384 V 7.1155082 8.224178 h 0.3966359 0.3966359 z m 1.5540428,1.090006 C 5.365312,8.059742 4.9237837,7.2697589 5.0607569,6.4131755 5.208052,5.492043 6.2040159,4.9412569 6.9886583,5.3470112 7.2591533,5.4868897 7.2661401,5.5217262 7.070668,5.7559138 6.9434103,5.9083762 6.8961012,5.9192132 6.6927938,5.8424733 6.337984,5.7085475 6.0468501,5.8176468 5.914636,6.1340794 5.6914514,6.6682355 5.8277893,7.4955174 6.1600142,7.6230041 6.3575305,7.6987982 6.7332832,7.6809053 6.7875361,7.5931221 6.8762936,7.4495094 7.0277405,7.5110788 7.167438,7.7475679 7.3047844,7.9800768 7.3044981,7.9812854 7.0858431,8.0919944 6.7911889,8.241183 6.366618,8.2990157 6.0759478,8.2295567 Z M 7.7726761,8.194139 C 7.366582,8.0618888 7.178738,7.5731872 7.3855003,7.1868484 c 0.10796,-0.201725 0.5352812,-0.3825461 0.9040443,-0.3825461 0.2289833,0 0.2789251,-0.0269 0.2562891,-0.1380435 C 8.5231228,6.554752 8.4402131,6.530182 8.114537,6.5384461 7.7558555,6.5475477 7.701402,6.526833 7.6211815,6.350768 7.5715862,6.2419181 7.5466468,6.1372206 7.5657606,6.1181068 7.5848744,6.098993 7.8628837,6.0635113 8.1835595,6.0392587 8.7264246,5.9982019 8.7826627,6.0089741 8.9995889,6.1955664 9.2276281,6.3917171 9.2334125,6.4155429 9.2721657,7.3183244 L 9.3117597,8.2406789 8.8779087,8.204374 C 8.6392907,8.1844064 8.3539919,8.1937987 8.2439113,8.225246 8.1338307,8.2566933 7.9217747,8.2426951 7.7726761,8.194139 Z M 8.5478996,7.4945197 C 8.5702714,7.3000931 8.5480574,7.2775942 8.33375,7.2775942 c -0.1480891,0 -0.2661368,0.052548 -0.3101087,0.1380435 C 7.9077273,7.6410113 8.002624,7.7619807 8.274613,7.7355638 8.4796202,7.7156525 8.5272941,7.6736031 8.5478996,7.4945197 Z M 10.162433,8.2402639 C 9.9259246,8.2046061 9.6056227,7.807534 9.542667,7.4719507 9.4546473,7.0027644 9.5754866,6.4889984 9.8348695,6.2296159 10.045511,6.0189741 10.10665,5.9997833 10.459169,6.0336559 l 0.390789,0.03755 V 5.5700522 5.0688986 h 0.354969 0.354969 l 0.0011,1.4001553 c 6.31e-4,0.7700853 0.02248,1.4800232 0.04864,1.5776397 0.0443,0.1652967 0.02256,0.1774844 -0.316606,0.1774844 -0.216679,0 -0.364173,-0.03586 -0.364173,-0.088541 0,-0.059821 -0.03198,-0.063254 -0.0986,-0.010586 -0.121768,0.09627 -0.435006,0.1503105 -0.667805,0.1152121 z m 0.592816,-0.5568084 c 0.07197,-0.045651 0.09546,-0.227372 0.07888,-0.6101275 -0.02256,-0.5207556 -0.03232,-0.5451127 -0.218489,-0.5451127 -0.254533,0 -0.414009,0.3008792 -0.36748,0.6933111 0.05336,0.4500728 0.247287,0.6267258 0.507087,0.4619291 z"
         id="path4162"
         sodipodi:nodetypes="sscccscssccssscsssccsscccccccccccccccccccssssssssssssssssssssscsssssssscsssccccccssscccssscss" />
      <path
         style="fill:#5a6794;stroke-width:0.078882"
         d="M 0.75306402,6.687311 V 4.7533707 H 2.2518218 c 1.2692441,0 1.4987578,0.017841 1.4987578,0.1165045 0,0.064077 0.088742,0.1746506 0.1972049,0.2457182 0.1826805,0.1196968 0.2117295,0.1196968 0.39441,0 0.1084627,-0.071068 0.1972049,-0.1842435 0.1972049,-0.2515022 0,-0.074005 0.054504,-0.1117918 0.1380435,-0.095704 0.1268944,0.024438 0.1380435,0.1793997 0.1380435,1.9186721 V 8.579147 L 2.7842752,8.6001991 0.75306402,8.6212514 Z M 1.8728091,7.6918901 1.8487655,7.1592712 2.0487575,7.3959172 C 2.1587533,7.5260725 2.3115605,7.7647607 2.3883292,7.9263356 2.5277178,8.2197061 2.5285964,8.2201108 3.0305799,8.222143 3.4218565,8.223727 3.515993,8.2023272 3.455374,8.1255755 3.1399263,7.7261767 2.4095858,6.7016799 2.4095858,6.6585793 c 0,-0.029249 0.2496518,-0.3633953 0.554782,-0.742548 L 3.5191497,5.2266626 H 3.0123602 c -0.4590194,0 -0.5112282,0.01673 -0.5538781,0.1774844 C 2.4325831,5.501763 2.2858156,5.7236191 2.1323313,5.8971595 L 1.8532689,6.2126874 1.8750608,5.7195313 1.8968528,5.2263751 1.4630019,5.2265189 1.029151,5.2266626 V 6.7254203 8.224178 l 0.4338509,1.657e-4 0.4338509,1.656e-4 z M 4.5549619,7.1199579 4.5310834,6.0154824 H 4.121111 3.7111386 V 7.1198302 8.224178 L 4.1449895,8.2243042 4.5788404,8.2244305 4.5549619,7.119955 Z M 5.8366395,8.1485376 C 5.6761693,8.0835479 5.1736412,7.5610692 5.1670199,7.4523339 5.1651305,7.4213047 5.1343092,7.2445591 5.098528,7.0595658 4.8595541,5.8240356 5.86882,4.8901198 6.9533175,5.3432518 L 7.2323547,5.459841 7.0915403,5.6982207 C 6.9435204,5.9487984 6.8682375,5.9882961 6.7875361,5.8577185 6.7607226,5.8143334 6.5983699,5.7788365 6.4267523,5.7788365 c -0.2673846,0 -0.3343977,0.036682 -0.4683416,0.2563664 C 5.7762593,6.3339528 5.7467004,7.0463105 5.903585,7.3564762 6.0657193,7.6770206 6.3677494,7.7800859 6.7171477,7.6340979 6.8776468,7.5670371 7.0142574,7.5215095 7.020727,7.5329252 c 0.00647,0.011416 0.073587,0.119526 0.1491505,0.2402449 L 7.3072652,7.992659 7.0302137,8.1084186 C 6.7311642,8.2333694 6.0986025,8.2546314 5.8366395,8.1485376 Z M 7.552744,8.0642308 C 7.0014213,7.5505956 7.4274451,6.8047683 8.272357,6.8044249 8.517676,6.8043223 8.5687032,6.7785454 8.5458337,6.6662588 8.5230124,6.5542063 8.4401035,6.5302688 8.1054892,6.5391216 7.7303622,6.5490464 7.6889216,6.5327417 7.6450551,6.3579636 7.6185424,6.2523283 7.6168734,6.145876 7.6413461,6.121403 7.6658191,6.09693 7.9175037,6.058311 8.2006443,6.035583 9.0771336,5.965227 9.2710516,6.2364672 9.2718783,7.5339603 l 4.404e-4,0.6902173 h -0.315528 c -0.1735403,0 -0.3155279,-0.036746 -0.3155279,-0.081657 0,-0.056289 -0.047403,-0.056289 -0.1525783,0 C 8.2297986,8.2810725 7.741669,8.2402412 7.552744,8.0642308 Z M 8.5478996,7.4945197 C 8.570127,7.3013445 8.5474263,7.2775942 8.3406333,7.2775942 c -0.2696368,0 -0.434131,0.1590557 -0.3611588,0.3492177 0.035778,0.093239 0.1239409,0.1254574 0.2971681,0.1086006 0.2028324,-0.019738 0.250702,-0.062248 0.271257,-0.2408928 z M 9.8251812,8.0003564 C 9.4172762,7.5924511 9.4390413,6.6304089 9.8658299,6.2036198 10.072165,5.9972844 10.501227,5.949945 10.785603,6.1021389 c 0.157439,0.084259 0.161043,0.071166 0.130279,-0.4732919 l -0.03164,-0.5599484 h 0.337827 0.337827 v 1.4528652 c 0,0.7990758 0.02155,1.5090137 0.04788,1.5776397 0.03939,0.1026509 -0.01656,0.1247745 -0.315528,0.1247745 -0.199875,0 -0.363409,-0.036746 -0.363409,-0.081657 0,-0.056289 -0.0474,-0.056289 -0.152578,0 C 10.478623,8.3018122 10.064775,8.239952 9.8251802,8.0003567 Z M 10.776262,7.6692287 c 0.124122,-0.066428 0.152578,-0.1676107 0.152578,-0.5425151 0,-0.4878316 -0.109999,-0.6738971 -0.368918,-0.6240338 -0.308198,0.059354 -0.447708,0.7452549 -0.218224,1.0728906 0.137322,0.1960538 0.212829,0.2123274 0.434564,0.093658 z"
         id="path4158" />
      <path
         style="fill:#304bae;stroke-width:0.078882"
         d="M 0.75306402,6.6859793 V 4.7533707 H 2.2518218 c 1.6728268,-3.008e-4 2.4060843,0.052893 2.4059006,0 0,0 0.118323,0.2673223 0.118323,1.9326086 V 8.618588 H 2.7645547 0.75306402 Z M 1.8709068,7.6918901 1.8449609,7.1592712 2.1667143,7.5876482 c 0.1769644,0.2356073 0.3217535,0.4752114 0.3217535,0.5324534 0,0.075703 0.1424127,0.1040764 0.5223916,0.1040764 0.4070345,0 0.505122,-0.021774 0.4441867,-0.098603 C 3.197221,7.8005041 2.4095858,6.6899102 2.4095858,6.6514392 c 0,-0.025322 0.2496518,-0.3562552 0.554782,-0.7354079 L 3.5191497,5.2266626 H 3.0123602 c -0.4590194,0 -0.5112282,0.01673 -0.5538781,0.1774844 C 2.4325831,5.501763 2.2858156,5.7236191 2.1323313,5.8971595 L 1.8532689,6.2126874 1.8750608,5.7195313 1.8968528,5.2263751 1.4630019,5.2265189 1.029151,5.2266626 V 6.7254203 8.224178 l 0.4338509,1.657e-4 0.4338509,1.656e-4 z M 4.5549619,7.1199579 4.5310834,6.0154824 H 4.121111 3.7111386 V 7.1198302 8.224178 L 4.1449895,8.2243042 4.5788404,8.2244305 4.5549619,7.119955 Z M 5.7532798,8.0739256 C 5.3034635,7.7996357 5.133674,7.4653785 5.1083615,6.8043023 5.0892081,6.3040828 5.1138288,6.1641916 5.2677332,5.8987672 5.6062397,5.3149781 6.307677,5.0836533 6.9392255,5.3475312 L 7.2285046,5.4683997 7.066395,5.6960617 C 6.9100507,5.915627 6.8959508,5.9195658 6.6699323,5.8068129 6.4728018,5.7084713 6.4012522,5.7063617 6.2194562,5.7935309 5.9177743,5.9381839 5.8040263,6.2103172 5.8026741,6.7906496 5.8016321,7.2378624 5.8254743,7.313693 6.0320894,7.520308 6.2929967,7.7812154 6.4215602,7.8014209 6.7476872,7.6327741 6.9622643,7.5218119 6.9835151,7.5252619 7.0987388,7.6897668 7.2661073,7.9287186 7.2563559,7.9653976 6.9886583,8.1038294 6.6635411,8.271954 6.0538292,8.2571953 5.7532798,8.0739256 Z m 1.8397705,-0.00847 C 7.004341,7.6023741 7.4663896,6.8043023 8.3232011,6.8043023 c 0.1574627,0 0.2391797,-0.039477 0.2391797,-0.1155476 0,-0.1885052 -0.2637987,-0.2826853 -0.5565945,-0.1987126 -0.3032542,0.086972 -0.3010638,0.088063 -0.3291271,-0.1639044 -0.019018,-0.1707589 0.019276,-0.2002026 0.3414051,-0.2624981 0.4984853,-0.096401 0.9105671,-0.0067 1.0671629,0.2322943 0.089264,0.1362346 0.1395083,0.4529783 0.1683381,1.0612204 L 9.2946604,8.224178 H 8.9745352 c -0.1760693,0 -0.3336542,-0.040587 -0.3501902,-0.090193 -0.022556,-0.06767 -0.072149,-0.06767 -0.1985925,0 C 8.1695588,8.271096 7.8176646,8.242135 7.5930503,8.065453 Z M 8.4098025,7.7481107 C 8.6143861,7.638621 8.6242874,7.1987122 8.4221688,7.1987122 c -0.1884348,0 -0.4908439,0.2190378 -0.4908439,0.3555222 0,0.060462 0.06212,0.1461117 0.1380435,0.1903334 0.1731933,0.1008757 0.1588454,0.1007264 0.3404341,0.00354 z m 1.552732,0.390866 C 9.7230409,7.9994846 9.5628,7.5811349 9.5671228,7.1066539 9.575119,6.229007 10.076631,5.8329175 10.797705,6.1347518 c 0.13413,0.056145 0.142963,0.018611 0.118323,-0.5027668 l -0.02663,-0.5634418 0.332082,1.814e-4 0.332081,1.814e-4 0.02289,1.5777211 0.02289,1.5777212 -0.335248,-7.88e-5 c -0.184387,-4.48e-5 -0.335249,-0.036827 -0.335249,-0.081739 0,-0.056289 -0.0474,-0.056289 -0.152578,0 -0.193213,0.1034047 -0.633399,0.1014876 -0.8137275,-0.00354 z m 0.8716475,-0.482749 c 0.05353,-0.053529 0.09466,-0.3099352 0.09466,-0.590112 0,-0.4710499 -0.01037,-0.498056 -0.210514,-0.5482893 -0.162958,-0.0409 -0.243145,-0.012536 -0.354968,0.125559 -0.159996,0.1975863 -0.193713,0.710305 -0.0628,0.9549225 0.09128,0.1705523 0.388706,0.2028355 0.533622,0.05792 z"
         id="path4156"
         sodipodi:nodetypes="ccccsccccccsssssscsssccccccccccccccccccccsssscssssssssscssssssscssscccssscccssscccccsssccsssscs" />
      <path
         style="fill:#263b8b;stroke-width:0.078882"
         d="M 0.75306402,6.6859793 V 4.7533707 H 2.2518218 c 0.9465838,0 1.4987578,0.029062 1.4987578,0.078882 0,0.049666 -0.52588,0.078882 -1.4198758,0.078882 H 0.910828 V 6.6859793 8.460824 H 2.7686071 4.6263862 L 4.6026133,6.6070214 c -0.018507,-1.4431632 -0.00193,-1.8537856 0.07483,-1.8537266 0.076197,5.86e-5 0.098603,0.4392261 0.098603,1.9326845 V 8.618588 H 2.7645547 0.75306402 Z M 5.7532798,8.0739256 C 5.3034635,7.7996357 5.133674,7.4653785 5.1083615,6.8043023 5.0892081,6.3040828 5.1138288,6.1641916 5.2677332,5.8987672 5.6062397,5.3149781 6.307677,5.0836533 6.9392255,5.3475312 L 7.2285046,5.4683997 7.066395,5.6960617 C 6.9100507,5.915627 6.8959508,5.9195658 6.6699323,5.8068129 6.4728018,5.7084713 6.4012522,5.7063617 6.2194562,5.7935309 5.9177743,5.9381839 5.8040263,6.2103172 5.8026741,6.7906496 5.8016321,7.2378624 5.8254743,7.313693 6.0320894,7.520308 6.2929967,7.7812154 6.4215602,7.8014209 6.7476872,7.6327741 6.9622643,7.5218119 6.9835151,7.5252619 7.0987388,7.6897668 7.2661073,7.9287186 7.2563559,7.9653976 6.9886583,8.1038294 6.6635411,8.271954 6.0538292,8.2571953 5.7532798,8.0739256 Z m 1.8397705,-0.00847 C 7.004341,7.6023741 7.4663896,6.8043023 8.3232011,6.8043023 c 0.1574627,0 0.2391797,-0.039477 0.2391797,-0.1155476 0,-0.1885052 -0.2637987,-0.2826853 -0.5565945,-0.1987126 -0.3032542,0.086972 -0.3010638,0.088063 -0.3291271,-0.1639044 -0.019018,-0.1707589 0.019276,-0.2002026 0.3414051,-0.2624981 0.4984853,-0.096401 0.9105671,-0.0067 1.0671629,0.2322943 0.089264,0.1362346 0.1395083,0.4529783 0.1683381,1.0612204 L 9.2946604,8.224178 H 8.9745352 c -0.1760693,0 -0.3336542,-0.040587 -0.3501902,-0.090193 -0.022556,-0.06767 -0.072149,-0.06767 -0.1985925,0 C 8.1695588,8.271096 7.8176646,8.242135 7.5930503,8.065453 Z M 8.4098025,7.7481107 C 8.6143861,7.638621 8.6242874,7.1987122 8.4221688,7.1987122 c -0.1884348,0 -0.4908439,0.2190378 -0.4908439,0.3555222 0,0.060462 0.06212,0.1461117 0.1380435,0.1903334 0.1731933,0.1008757 0.1588454,0.1007264 0.3404341,0.00354 z m 1.552732,0.390866 C 9.7230409,7.9994846 9.5628,7.5811349 9.5671228,7.1066539 9.575119,6.229007 10.076631,5.8329175 10.797705,6.1347518 c 0.13413,0.056145 0.142963,0.018611 0.118323,-0.5027668 l -0.02663,-0.5634418 0.332082,1.814e-4 0.332081,1.814e-4 0.02289,1.5777211 0.02289,1.5777212 -0.335248,-7.88e-5 c -0.184387,-4.48e-5 -0.335249,-0.036827 -0.335249,-0.081739 0,-0.056289 -0.0474,-0.056289 -0.152578,0 -0.193213,0.1034047 -0.633399,0.1014876 -0.8137275,-0.00354 z m 0.8716475,-0.482749 c 0.05353,-0.053529 0.09466,-0.3099352 0.09466,-0.590112 0,-0.4710499 -0.01037,-0.498056 -0.210514,-0.5482893 -0.162958,-0.0409 -0.243145,-0.012536 -0.354968,0.125559 -0.159996,0.1975863 -0.193713,0.710305 -0.0628,0.9549225 0.09128,0.1705523 0.388706,0.2028355 0.533622,0.05792 z"
         id="path4154" />
      <path
         style="fill:#1b2b63;stroke-width:0.078882"
         d="M 0.75306402,6.6859793 V 4.7533707 l 1.51847828,0.01702 1.5184782,0.01702 L 2.3307038,4.8295521 0.871387,4.8716936 0.85021271,6.7056998 0.82903834,8.539706 H 2.7631009 4.6971634 V 6.6925528 c 0,-1.4039148 -0.02366,-1.8567004 -0.098603,-1.8869401 -0.058904,-0.023769 -0.043025,-0.042294 0.039441,-0.046015 0.1278832,-0.00577 0.1380435,0.136017 0.1380435,1.9263811 V 8.618588 H 2.7645547 0.75306402 Z M 5.8409522,8.1135449 C 4.8544979,7.6781137 4.8268485,5.9220537 5.7983578,5.4083072 6.2053819,5.1930676 6.5229831,5.1813427 6.9233724,5.3667747 L 7.2169728,5.5027495 7.070683,5.6936425 C 6.9348954,5.8708313 6.906484,5.8771173 6.6749258,5.7812028 6.1599666,5.5678997 5.7752173,5.9756336 5.7752173,6.7346593 c 0,0.7588883 0.436827,1.1771445 0.9579154,0.9171914 C 6.9667571,7.5353035 6.9821871,7.5380342 7.0992122,7.7166372 7.2645194,7.9689278 7.2605593,7.979215 6.9478337,8.1098802 6.6109447,8.2506413 6.1549596,8.252151 5.8409522,8.1135449 Z M 7.5649783,8.0371955 C 7.3994372,7.8948031 7.3475982,7.7794986 7.3475982,7.5536812 c 0,-0.3949476 0.2884735,-0.6468245 0.8218391,-0.717578 C 8.5753411,6.7822582 8.6624252,6.6700035 8.440912,6.4861636 8.3485483,6.4095082 8.2538031,6.4054991 8.0454916,6.4694315 7.8058702,6.5429735 7.761325,6.5344216 7.6900209,6.4011888 7.5689954,6.1750505 7.6506402,6.1112188 8.138947,6.0502089 c 0.5270169,-0.065846 0.949071,0.091815 1.0095932,0.3771401 0.020971,0.098862 0.04978,0.5435915 0.064021,0.9882887 l 0.025892,0.8085403 h -0.292022 c -0.1606124,0 -0.3055509,-0.040587 -0.3220869,-0.090193 -0.022556,-0.06767 -0.072149,-0.06767 -0.1985925,0 C 8.1534432,8.2797202 7.8008359,8.2400715 7.5649783,8.0371955 Z M 8.4677224,7.7351097 C 8.6030949,7.5997374 8.5892417,7.1987122 8.449193,7.1987122 c -0.2411454,0 -0.5178681,0.1591291 -0.5178681,0.2977992 0,0.1776346 0.1473429,0.3332567 0.3155279,0.3332567 0.069416,0 0.1688075,-0.042596 0.2208696,-0.094658 z M 9.8786427,8.0336963 C 9.6203515,7.7943205 9.5601527,7.556077 9.604176,6.9474657 9.6348926,6.5228072 9.6700653,6.4376113 9.8991788,6.2328982 10.162772,5.9973775 10.417901,5.9689769 10.797705,6.1328754 c 0.134272,0.057943 0.142989,0.021039 0.118323,-0.5008904 l -0.02663,-0.5634418 0.332082,1.814e-4 0.332081,1.814e-4 0.02289,1.5777211 0.02289,1.5777212 -0.328675,-7.88e-5 c -0.191003,-4.74e-5 -0.343818,-0.041383 -0.364829,-0.098684 -0.02892,-0.078882 -0.05706,-0.078882 -0.140673,0 -0.1793,0.1691512 -0.658443,0.1194924 -0.8865173,-0.091879 z M 10.834131,7.6834555 c 0.07197,-0.045651 0.09546,-0.227372 0.07888,-0.6101275 -0.02334,-0.5388219 -0.0263,-0.5454183 -0.25637,-0.5716003 -0.15485,-0.017622 -0.26706,0.020427 -0.335248,0.1136792 -0.122622,0.1676958 -0.135367,0.7688978 -0.02083,0.982901 0.08407,0.15708 0.352611,0.1999344 0.533571,0.085148 z"
         id="path4152" />
      <circle
         style="fill:#dd5200;fill-opacity:1;stroke-width:10.4285"
         id="path4166"
         cx="4.1432176"
         cy="4.8173413"
         r="0.48050922" />
    </g>
  </g>
</svg>
