<?xml version="1.0" encoding="UTF-8" standalone="no"?>
<svg
   xmlns:dc="http://purl.org/dc/elements/1.1/"
   xmlns:cc="http://creativecommons.org/ns#"
   xmlns:rdf="http://www.w3.org/1999/02/22-rdf-syntax-ns#"
   xmlns:svg="http://www.w3.org/2000/svg"
   xmlns="http://www.w3.org/2000/svg"
   xmlns:sodipodi="http://sodipodi.sourceforge.net/DTD/sodipodi-0.dtd"
   xmlns:inkscape="http://www.inkscape.org/namespaces/inkscape"
   width="48"
   height="48"
   viewBox="0 0 12.7 12.7"
   version="1.1"
   id="svg8"
   inkscape:version="1.0.1 (1.0.1+r73)"
   sodipodi:docname="pytorch.svg">
  <defs
     id="defs2" />
  <sodipodi:namedview
     id="base"
     pagecolor="#ffffff"
     bordercolor="#666666"
     borderopacity="1.0"
     inkscape:pageopacity="0.0"
     inkscape:pageshadow="2"
     inkscape:zoom="0.41586538"
     inkscape:cx="400"
     inkscape:cy="560"
     inkscape:document-units="mm"
     inkscape:current-layer="g847"
     inkscape:document-rotation="0"
     showgrid="false"
     units="px"
     inkscape:window-width="1920"
     inkscape:window-height="1016"
     inkscape:window-x="0"
     inkscape:window-y="27"
     inkscape:window-maximized="1" />
  <metadata
     id="metadata5">
    <rdf:RDF>
      <cc:Work
         rdf:about="">
        <dc:format>image/svg+xml</dc:format>
        <dc:type
           rdf:resource="http://purl.org/dc/dcmitype/StillImage" />
        <dc:title></dc:title>
      </cc:Work>
    </rdf:RDF>
  </metadata>
  <g
     inkscape:label="Layer 1"
     inkscape:groupmode="layer"
     id="layer1">
    <g
       id="g847">
      <path
         style="fill:#fad8d2;stroke-width:0.264583"
         d="m 176.94914,357.53326 c 0.32911,-0.0633 0.80536,-0.0609 1.05833,0.005 0.25294,0.0662 -0.0164,0.11801 -0.59841,0.11507 -0.58208,-0.003 -0.78906,-0.0571 -0.45992,-0.12041 z m 12.96458,0 c 0.32912,-0.0633 0.80537,-0.0609 1.05833,0.005 0.25295,0.0662 -0.0164,0.11801 -0.5984,0.11507 -0.58209,-0.003 -0.78907,-0.0571 -0.45993,-0.12041 z m -18.52393,-0.25268 c 0.1819,-0.0734 0.47956,-0.0734 0.66146,0 0.1819,0.0734 0.0331,0.13346 -0.33073,0.13346 -0.3638,0 -0.51263,-0.0601 -0.33073,-0.13346 z m 24.34167,0 c 0.1819,-0.0734 0.47956,-0.0734 0.66146,0 0.1819,0.0734 0.0331,0.13346 -0.33073,0.13346 -0.3638,0 -0.51263,-0.0601 -0.33073,-0.13346 z m -27.76471,-0.27008 c 0.191,-0.0764 0.4192,-0.067 0.50712,0.0209 0.0879,0.0879 -0.0684,0.15047 -0.34726,0.13898 -0.30824,-0.0127 -0.37092,-0.0754 -0.15986,-0.15986 z m 31.48541,0 c 0.191,-0.0764 0.41921,-0.067 0.50713,0.0209 0.0879,0.0879 -0.0684,0.15047 -0.34727,0.13898 -0.30824,-0.0127 -0.37092,-0.0754 -0.15986,-0.15986 z m -23.56445,-48.14867 c 0.1819,-0.0734 0.47956,-0.0734 0.66146,0 0.1819,0.0734 0.0331,0.13346 -0.33073,0.13346 -0.3638,0 -0.51263,-0.0601 -0.33073,-0.13346 z m 15.34583,0 c 0.1819,-0.0734 0.47956,-0.0734 0.66146,0 0.1819,0.0734 0.0331,0.13346 -0.33073,0.13346 -0.3638,0 -0.51263,-0.0601 -0.33073,-0.13346 z m -19.29804,-0.27008 c 0.191,-0.0764 0.4192,-0.067 0.50712,0.0209 0.0879,0.0879 -0.0684,0.15047 -0.34726,0.13899 -0.30824,-0.0127 -0.37092,-0.0754 -0.15986,-0.15987 z m 23.54791,0 c 0.191,-0.0764 0.41921,-0.067 0.50713,0.0209 0.0879,0.0879 -0.0684,0.15047 -0.34727,0.13899 -0.30824,-0.0127 -0.37092,-0.0754 -0.15986,-0.15987 z M 53.418026,307.25113 c -0.329107,-0.41965 -0.319749,-0.42899 0.0999,-0.0999 0.44073,0.34566 0.580887,0.56293 0.363125,0.56293 -0.05494,0 -0.2633,-0.20836 -0.463021,-0.46302 z m 260.383744,0.36312 c 0,-0.0549 0.20836,-0.26329 0.46302,-0.46303 0.41965,-0.32908 0.42899,-0.31974 0.0999,0.0999 -0.34565,0.44072 -0.56292,0.58089 -0.56292,0.36312 z M 48.95386,303.08394 c -0.642681,-0.65484 -1.10898,-1.19062 -1.03622,-1.19062 0.07276,0 0.658122,0.53578 1.300803,1.19062 0.642681,0.65485 1.10898,1.19063 1.03622,1.19063 -0.07276,0 -0.658122,-0.53578 -1.300803,-1.19063 z m 269.86393,-0.19843 c 0.64876,-0.69123 1.21431,-1.25677 1.25677,-1.25677 0.19868,0 -0.0114,0.23754 -1.17956,1.33397 l -1.25677,1.17957 z M 44.98511,299.11519 c -0.642681,-0.65484 -1.10898,-1.19062 -1.03622,-1.19062 0.07276,0 0.658122,0.53578 1.300803,1.19062 0.642681,0.65485 1.10898,1.19063 1.03622,1.19063 -0.07276,0 -0.658122,-0.53578 -1.300803,-1.19063 z m 277.53685,0.0661 c 1.09643,-1.16819 1.33397,-1.37824 1.33397,-1.17957 0,0.0425 -0.56554,0.60802 -1.25677,1.25678 l -1.25677,1.17956 z M 40.453443,294.28655 c -0.329107,-0.41966 -0.319749,-0.429 0.0999,-0.0999 0.44073,0.34565 0.580888,0.56293 0.363125,0.56293 -0.05494,0 -0.2633,-0.20836 -0.463021,-0.46302 z m 286.312907,0.36311 c 0,-0.0549 0.20836,-0.26328 0.46302,-0.46302 0.41966,-0.32909 0.429,-0.31975 0.0999,0.0999 -0.34565,0.44071 -0.56293,0.58089 -0.56293,0.36311 z M 87.284691,272.32613 c -0.329107,-0.41965 -0.319748,-0.42899 0.0999,-0.0999 0.440729,0.34565 0.580887,0.56292 0.363124,0.56292 -0.05494,0 -0.2633,-0.20836 -0.463021,-0.46302 z m 192.650409,0.36312 c 0,-0.0549 0.20836,-0.26329 0.46302,-0.46302 0.41966,-0.32909 0.429,-0.31975 0.0999,0.0999 -0.34565,0.44072 -0.56293,0.58089 -0.56293,0.36312 z m -196.076268,-3.53812 -0.641432,-0.7276 0.727604,0.64143 c 0.400183,0.35279 0.727605,0.68021 0.727605,0.7276 0,0.20751 -0.21426,0.0386 -0.813777,-0.64143 z m 199.780438,0.0661 c 0.34176,-0.3638 0.68093,-0.66146 0.75369,-0.66146 0.0728,0 -0.14735,0.29766 -0.48911,0.66146 -0.34176,0.3638 -0.68093,0.66146 -0.75369,0.66146 -0.0728,0 0.14735,-0.29766 0.48911,-0.66146 z m -205.072104,-5.35781 -0.641432,-0.72761 0.727604,0.64143 c 0.400182,0.3528 0.727604,0.68022 0.727604,0.72761 0,0.20751 -0.21426,0.0386 -0.813776,-0.64143 z m 210.363764,0.0661 c 0.34177,-0.3638 0.68094,-0.66146 0.7537,-0.66146 0.0728,0 -0.14735,0.29766 -0.48911,0.66146 -0.34176,0.3638 -0.68093,0.66146 -0.75369,0.66146 -0.0728,0 0.14734,-0.29766 0.4891,-0.66146 z M 75.378442,260.41988 c -0.329107,-0.41965 -0.319749,-0.42899 0.0999,-0.0999 0.44073,0.34565 0.580887,0.56292 0.363125,0.56292 -0.05494,0 -0.2633,-0.20836 -0.463021,-0.46302 z M -8.9689993,182.67649 c 0.0127,-0.30824 0.07539,-0.37092 0.1598506,-0.15986 0.07643,0.191 0.067032,0.41921 -0.020876,0.50713 -0.087918,0.0879 -0.1504527,-0.0684 -0.1389645,-0.34727 z m -0.2645834,-3.175 c 0.0127,-0.30824 0.07539,-0.37092 0.1598507,-0.15986 0.07643,0.191 0.067032,0.41921 -0.020876,0.50713 -0.087918,0.0879 -0.1504527,-0.0684 -0.1389645,-0.34727 z m 386.0270527,0 c 0.0127,-0.30824 0.0754,-0.37092 0.15987,-0.15986 0.0764,0.191 0.067,0.41921 -0.0209,0.50713 -0.0879,0.0879 -0.15047,-0.0684 -0.13898,-0.34727 z M -9.4772798,175.95166 c 0,-0.36381 0.060055,-0.51263 0.1334532,-0.33073 0.073398,0.1819 0.073398,0.47955 0,0.66146 -0.073398,0.1819 -0.1334532,0.0331 -0.1334532,-0.33073 z M 377.05806,175.79733 c 0.0127,-0.30824 0.0754,-0.37092 0.15986,-0.15987 0.0764,0.19101 0.067,0.41921 -0.0209,0.50713 -0.0879,0.0879 -0.15047,-0.0684 -0.13899,-0.34726 z M 39.185166,175.53274 c 0.0127,-0.30824 0.07539,-0.37092 0.15985,-0.15986 0.07643,0.191 0.06703,0.41921 -0.02088,0.50713 -0.08792,0.0879 -0.150453,-0.0684 -0.138965,-0.34727 z m 289.189564,0 c 0.0127,-0.30824 0.0754,-0.37092 0.15986,-0.15986 0.0764,0.191 0.067,0.41921 -0.0209,0.50713 -0.0879,0.0879 -0.15046,-0.0684 -0.13898,-0.34727 z M 38.951274,171.32145 c 0.0054,-0.43656 0.06469,-0.58312 0.131773,-0.3257 0.06708,0.25744 0.06267,0.61462 -0.0098,0.79375 -0.07248,0.17915 -0.127362,-0.0315 -0.12197,-0.46805 z m 289.718726,0 c 0.005,-0.43656 0.0647,-0.58312 0.13179,-0.3257 0.0671,0.25744 0.0627,0.61462 -0.01,0.79375 -0.0725,0.17915 -0.12734,-0.0315 -0.12197,-0.46805 z M -9.7115763,169.86624 c 0,-0.65484 0.051599,-0.92273 0.1146625,-0.59531 0.063066,0.32742 0.063066,0.8632 0,1.19062 -0.063063,0.32742 -0.1146625,0.0595 -0.1146625,-0.59531 z m 387.0854163,0 c 0,-0.65484 0.0516,-0.92273 0.11464,-0.59531 0.0631,0.32742 0.0631,0.8632 0,1.19062 -0.063,0.32742 -0.11464,0.0595 -0.11464,-0.59531 z m 0.004,-11.50937 c 0.003,-0.72761 0.0534,-0.99386 0.1142,-0.59169 0.0608,0.40219 0.0592,0.9975 -0.004,1.32291 -0.0628,0.32544 -0.11255,-0.004 -0.11057,-0.73122 z m -387.0891163,-0.1323 c 0,-0.65484 0.051599,-0.92273 0.1146625,-0.59531 0.063066,0.32742 0.063066,0.8632 0,1.19063 -0.063063,0.32742 -0.1146625,0.0595 -0.1146625,-0.59532 z m 48.6628503,-1.4552 c 0.0054,-0.43657 0.06469,-0.58312 0.131773,-0.32571 0.06708,0.25744 0.06267,0.61463 -0.0098,0.79375 -0.07248,0.17915 -0.127362,-0.0315 -0.12197,-0.46804 z m 289.718726,0 c 0.005,-0.43657 0.0647,-0.58312 0.13179,-0.32571 0.0671,0.25744 0.0627,0.61463 -0.01,0.79375 -0.0725,0.17915 -0.12734,-0.0315 -0.12197,-0.46804 z m -0.29527,-3.99079 c 0.0127,-0.30824 0.0754,-0.37092 0.15986,-0.15987 0.0764,0.19101 0.067,0.41921 -0.0209,0.50713 -0.0879,0.0879 -0.15046,-0.0684 -0.13898,-0.34726 z M -9.4772798,152.40374 c 0,-0.3638 0.060055,-0.51263 0.1334532,-0.33073 0.073398,0.1819 0.073398,0.47956 0,0.66146 -0.073398,0.1819 -0.1334532,0.0331 -0.1334532,-0.33073 z m 386.5562398,0 c 0,-0.3638 0.0601,-0.51263 0.13346,-0.33073 0.0734,0.1819 0.0734,0.47956 0,0.66146 -0.0734,0.1819 -0.13346,0.0331 -0.13346,-0.33073 z m -386.3125427,-3.8585 c 0.0127,-0.30824 0.07539,-0.37092 0.1598507,-0.15986 0.07643,0.191 0.067032,0.41921 -0.020876,0.50713 -0.087918,0.0879 -0.1504527,-0.0684 -0.1389645,-0.34727 z m 386.0270527,0 c 0.0127,-0.30824 0.0754,-0.37092 0.15987,-0.15986 0.0764,0.191 0.067,0.41921 -0.0209,0.50713 -0.0879,0.0879 -0.15047,-0.0684 -0.13898,-0.34727 z M 80.0424,62.709994 c 0.716664,-0.727604 1.362557,-1.322917 1.435317,-1.322917 0.07276,0 -0.45407,0.595313 -1.170733,1.322917 -0.716664,0.727604 -1.362557,1.322916 -1.435317,1.322916 -0.07276,0 0.45407,-0.595312 1.170733,-1.322916 z m 207.42338,-0.06615 -1.31297,-1.389062 1.38906,1.312968 c 0.76399,0.722127 1.38906,1.347205 1.38906,1.389062 0,0.197432 -0.24511,-0.02223 -1.46515,-1.312968 z M 40.751777,33.505932 c 0,-0.05494 0.208359,-0.2633 0.463021,-0.463021 0.419645,-0.329107 0.429003,-0.319749 0.0999,0.0999 -0.345644,0.44073 -0.562917,0.580888 -0.562917,0.363125 z M 326.46801,33.142807 c -0.32909,-0.419645 -0.31975,-0.429003 0.0999,-0.0999 0.25466,0.199721 0.46302,0.40808 0.46302,0.463021 0,0.217763 -0.21727,0.0776 -0.56292,-0.363125 z m -212.02978,-73.62031 c 38.12625,-38.126457 69.37999,-69.320827 69.45275,-69.320827 0.0728,0 -31.06192,31.19437 -69.18816,69.320827 -38.126252,38.1264575 -69.379988,69.320831 -69.452748,69.320831 -0.07276,0 31.061912,-31.1943735 69.188158,-69.320831 z m 207.02222,68.328644 -0.91181,-0.992188 0.99219,0.9118 c 0.5457,0.501488 0.99219,0.947972 0.99219,0.992187 0,0.202041 -0.22389,0.01169 -1.07257,-0.911799 z M 269.35177,11.562622 c 0,-0.04553 0.38695,-0.432488 0.85989,-0.859896 l 0.8599,-0.7771053 -0.77711,0.8598953 c -0.72437,0.801545 -0.94268,0.981512 -0.94268,0.777106 z m 7.97928,-16.8505424 c 0,-0.3638021 0.0601,-0.5126302 0.13345,-0.3307292 0.0734,0.181901 0.0734,0.4795573 0,0.6614583 -0.0734,0.1819011 -0.13345,0.033073 -0.13345,-0.3307291 z m 0,-3.1749999 c 0,-0.3638021 0.0601,-0.5126302 0.13345,-0.3307292 0.0734,0.1819011 0.0734,0.4795573 0,0.6614583 -0.0734,0.1819011 -0.13345,0.033073 -0.13345,-0.3307291 z m -44.2272,-15.1811457 c 0,-0.05494 0.20836,-0.2633 0.46302,-0.463021 0.41966,-0.329107 0.429,-0.319749 0.0999,0.0999 -0.34565,0.44073 -0.56293,0.580888 -0.56293,0.363125 z m 16.86719,-8.541998 c 0.1819,-0.0734 0.47956,-0.0734 0.66146,0 0.1819,0.0734 0.0331,0.133453 -0.33073,0.133453 -0.3638,0 -0.51263,-0.06005 -0.33073,-0.133453 z m 3.98529,-0.0055 c 0.191,-0.07643 0.4192,-0.06703 0.50712,0.02088 0.0879,0.08792 -0.0684,0.150453 -0.34726,0.138964 -0.30824,-0.0127 -0.37092,-0.07539 -0.15986,-0.15985 z"
         id="path859" />
      <path
         style="fill:#f7b6aa;stroke-width:0.264583"
         d="m 52.624276,306.45738 c -0.329107,-0.41965 -0.319749,-0.42899 0.0999,-0.0999 0.44073,0.34566 0.580888,0.56293 0.363125,0.56293 -0.05494,0 -0.2633,-0.20836 -0.463021,-0.46302 z m 261.971244,0.36312 c 0,-0.0549 0.20836,-0.26329 0.46302,-0.46303 0.41965,-0.32908 0.42899,-0.31974 0.0999,0.0999 -0.34565,0.44072 -0.56292,0.58089 -0.56292,0.36312 z m -267.778353,-5.91937 -0.641432,-0.7276 0.727604,0.64143 c 0.400182,0.35279 0.727604,0.68021 0.727604,0.7276 0,0.20751 -0.214259,0.0386 -0.813776,-0.64143 z m 273.863763,0.0661 c 0.34177,-0.3638 0.68094,-0.66146 0.7537,-0.66146 0.0728,0 -0.14735,0.29766 -0.48911,0.66146 -0.34177,0.3638 -0.68093,0.66146 -0.7537,0.66146 -0.0728,0 0.14735,-0.29766 0.48911,-0.66146 z M 41.247193,295.0803 c -0.329107,-0.41966 -0.319749,-0.429 0.0999,-0.0999 0.44073,0.34565 0.580888,0.56293 0.363125,0.56293 -0.05494,0 -0.2633,-0.20836 -0.463021,-0.46302 z m 284.725407,0.36311 c 0,-0.0549 0.20836,-0.26328 0.46302,-0.46302 0.41966,-0.32909 0.429,-0.31975 0.0999,0.0999 -0.34565,0.44071 -0.56293,0.58089 -0.56293,0.36311 z M 85.168025,270.47405 c -0.329107,-0.41966 -0.319749,-0.429 0.0999,-0.0999 0.44073,0.34565 0.580887,0.56293 0.363125,0.56293 -0.05494,0 -0.2633,-0.20836 -0.463021,-0.46302 z m 197.280615,-0.0661 c 0.2634,-0.29104 0.53843,-0.52916 0.61119,-0.52916 0.0728,0 -0.0832,0.23812 -0.3466,0.52916 -0.2634,0.29104 -0.53843,0.52917 -0.61119,0.52917 -0.0728,0 0.0832,-0.23813 0.3466,-0.52917 z M 77.495109,262.80113 c -0.329108,-0.41965 -0.319749,-0.42899 0.0999,-0.0999 0.440729,0.34565 0.580887,0.56292 0.363124,0.56292 -0.05494,0 -0.2633,-0.20836 -0.46302,-0.46302 z m 212.229571,0.36312 c 0,-0.0549 0.20836,-0.26329 0.46303,-0.46302 0.41965,-0.32909 0.42899,-0.31975 0.0999,0.0999 -0.34565,0.44072 -0.56293,0.5809 -0.56293,0.36312 z M 78.190317,64.562077 c 0.26339,-0.291042 0.538422,-0.529167 0.611182,-0.529167 0.07276,0 -0.08321,0.238125 -0.346599,0.529167 -0.26339,0.291042 -0.538421,0.529167 -0.611182,0.529167 -0.07276,0 0.08321,-0.238125 0.346599,-0.529167 z m 211.112353,-0.06615 -0.50403,-0.595312 0.59532,0.504031 c 0.55943,0.473657 0.71575,0.686594 0.50403,0.686594 -0.0502,0 -0.31811,-0.267891 -0.59532,-0.595313 z M 41.545527,32.712182 c 0,-0.05494 0.208359,-0.2633 0.463021,-0.463021 0.419645,-0.329107 0.429003,-0.319749 0.0999,0.0999 -0.345644,0.44073 -0.562917,0.580888 -0.562917,0.363125 z M 325.67426,32.349057 c -0.32909,-0.419645 -0.31975,-0.429003 0.0999,-0.0999 0.25466,0.199721 0.46302,0.40808 0.46302,0.463021 0,0.217763 -0.21727,0.0776 -0.56292,-0.363125 z m -91.37978,-57.216143 c 0.26339,-0.291042 0.53843,-0.529167 0.61119,-0.529167 0.0728,0 -0.0832,0.238125 -0.34661,0.529167 -0.26339,0.291041 -0.53843,0.529166 -0.61119,0.529166 -0.0728,0 0.0832,-0.238125 0.34661,-0.529166 z"
         id="path857" />
      <path
         style="fill:#f5a595;stroke-width:0.264583"
         d="m 179.32729,357.529 c 0.47295,-0.0587 1.24685,-0.0587 1.71979,0 0.47295,0.0587 0.086,0.10671 -0.85989,0.10671 -0.94589,0 -1.33284,-0.048 -0.8599,-0.10671 z m 7.40834,0 c 0.47294,-0.0587 1.24684,-0.0587 1.71979,0 0.47294,0.0587 0.086,0.10671 -0.8599,0.10671 -0.94588,0 -1.33284,-0.048 -0.85989,-0.10671 z m -14.02292,-0.24842 c 0.1819,-0.0734 0.47956,-0.0734 0.66146,0 0.1819,0.0734 0.0331,0.13346 -0.33073,0.13346 -0.3638,0 -0.51263,-0.0601 -0.33073,-0.13346 z m 21.69583,0 c 0.1819,-0.0734 0.47956,-0.0734 0.66146,0 0.1819,0.0734 0.0331,0.13346 -0.33073,0.13346 -0.3638,0 -0.51263,-0.0601 -0.33073,-0.13346 z M 168.7605,357.0105 c 0.191,-0.0764 0.4192,-0.067 0.50712,0.0209 0.0879,0.0879 -0.0684,0.15047 -0.34726,0.13898 -0.30824,-0.0127 -0.37092,-0.0754 -0.15986,-0.15986 z m 29.89791,0 c 0.191,-0.0764 0.41921,-0.067 0.50713,0.0209 0.0879,0.0879 -0.0684,0.15047 -0.34727,0.13898 -0.30824,-0.0127 -0.37092,-0.0754 -0.15986,-0.15986 z m -16.68528,-47.9053 c 1.05502,-0.0502 2.78143,-0.0502 3.83645,0 1.05503,0.0502 0.19183,0.0913 -1.91823,0.0913 -2.11005,0 -2.97325,-0.0411 -1.91822,-0.0913 z m -7.40834,-0.24337 c 0.1819,-0.0734 0.47956,-0.0734 0.66146,0 0.1819,0.0734 0.0331,0.13346 -0.33073,0.13346 -0.3638,0 -0.51263,-0.0601 -0.33073,-0.13346 z m 17.99167,0 c 0.1819,-0.0734 0.47956,-0.0734 0.66146,0 0.1819,0.0734 0.0331,0.13346 -0.33073,0.13346 -0.3638,0 -0.51263,-0.0601 -0.33073,-0.13346 z m -21.41471,-0.27008 c 0.191,-0.0764 0.4192,-0.067 0.50712,0.0209 0.0879,0.0879 -0.0684,0.15047 -0.34726,0.13899 -0.30824,-0.0127 -0.37092,-0.0754 -0.15986,-0.15987 z m 25.13541,0 c 0.191,-0.0764 0.41921,-0.067 0.50713,0.0209 0.0879,0.0879 -0.0684,0.15047 -0.34727,0.13899 -0.30824,-0.0127 -0.37092,-0.0754 -0.15986,-0.15987 z M -9.2335827,178.70774 c 0.0127,-0.30824 0.07539,-0.37092 0.1598507,-0.15986 0.07643,0.191 0.067032,0.41921 -0.020876,0.50713 -0.087918,0.0879 -0.1504527,-0.0684 -0.1389645,-0.34727 z m 386.0270527,0 c 0.0127,-0.30824 0.0754,-0.37092 0.15987,-0.15986 0.0764,0.191 0.067,0.41921 -0.0209,0.50713 -0.0879,0.0879 -0.15047,-0.0684 -0.13898,-0.34727 z M 39.185166,176.32649 c 0.0127,-0.30824 0.07539,-0.37092 0.15985,-0.15986 0.07643,0.191 0.06703,0.41921 -0.02088,0.50713 -0.08792,0.0879 -0.150453,-0.0684 -0.138965,-0.34727 z m 289.189564,0 c 0.0127,-0.30824 0.0754,-0.37092 0.15986,-0.15986 0.0764,0.191 0.067,0.41921 -0.0209,0.50713 -0.0879,0.0879 -0.15046,-0.0684 -0.13898,-0.34727 z M -9.4772798,174.62874 c 0,-0.3638 0.060055,-0.51263 0.1334532,-0.33073 0.073398,0.1819 0.073398,0.47956 0,0.66146 -0.073398,0.1819 -0.1334532,0.0331 -0.1334532,-0.33073 z m 386.5562398,0 c 0,-0.3638 0.0601,-0.51263 0.13346,-0.33073 0.0734,0.1819 0.0734,0.47956 0,0.66146 -0.0734,0.1819 -0.13346,0.0331 -0.13346,-0.33073 z M 38.920582,172.62233 c 0.0127,-0.30824 0.07539,-0.37092 0.159851,-0.15987 0.07643,0.19101 0.06703,0.41921 -0.02088,0.50713 -0.08792,0.0879 -0.150452,-0.0684 -0.138964,-0.34726 z m 289.718728,0 c 0.0127,-0.30824 0.0754,-0.37092 0.15986,-0.15987 0.0764,0.19101 0.067,0.41921 -0.0209,0.50713 -0.0879,0.0879 -0.15047,-0.0684 -0.13899,-0.34726 z M -9.674823,164.04541 c 0,-2.54662 0.039682,-3.58841 0.088186,-2.31511 0.048501,1.27331 0.048501,3.3569 0,4.63021 -0.048503,1.27331 -0.088186,0.23151 -0.088186,-2.3151 z m 387.085413,0 c 0,-2.54662 0.0397,-3.58841 0.0882,-2.31511 0.0485,1.27331 0.0485,3.3569 0,4.63021 -0.0485,1.27331 -0.0882,0.23151 -0.0882,-2.3151 z m -338.677595,0 c 0,-1.52797 0.04373,-2.15305 0.09718,-1.38907 0.05345,0.76399 0.05345,2.01415 0,2.77813 -0.05345,0.76398 -0.09718,0.13891 -0.09718,-1.38906 z m 290.246645,0.13229 c 0,-1.45521 0.0451,-2.01676 0.0987,-1.24791 0.0536,0.76888 0.0531,1.95951 0,2.64583 -0.0543,0.68636 -0.0982,0.0573 -0.0975,-1.39792 z M 38.920582,155.42441 c 0.0127,-0.30824 0.07539,-0.37092 0.159851,-0.15986 0.07643,0.191 0.06703,0.4192 -0.02088,0.50712 -0.08792,0.0879 -0.150452,-0.0684 -0.138964,-0.34726 z m 289.718728,0 c 0.0127,-0.30824 0.0754,-0.37092 0.15986,-0.15986 0.0764,0.191 0.067,0.4192 -0.0209,0.50712 -0.0879,0.0879 -0.15047,-0.0684 -0.13899,-0.34726 z m 48.44944,-1.83004 c 0.005,-0.43657 0.0647,-0.58312 0.13179,-0.32571 0.0671,0.25744 0.0627,0.61463 -0.01,0.79375 -0.0725,0.17915 -0.12735,-0.0315 -0.12197,-0.46804 z m -386.5660298,-0.1323 c 0,-0.3638 0.060055,-0.51263 0.1334532,-0.33073 0.073398,0.18191 0.073398,0.47956 0,0.66146 -0.073398,0.1819 -0.1334532,0.0331 -0.1334532,-0.33073 z m 48.6624458,-1.74183 c 0.0127,-0.30824 0.07539,-0.37092 0.15985,-0.15986 0.07643,0.191 0.06703,0.41921 -0.02088,0.50713 -0.08792,0.0879 -0.150453,-0.0684 -0.138965,-0.34727 z m 289.189564,0 c 0.0127,-0.30824 0.0754,-0.37092 0.15986,-0.15986 0.0764,0.191 0.067,0.41921 -0.0209,0.50713 -0.0879,0.0879 -0.15046,-0.0684 -0.13898,-0.34727 z M -9.2335827,149.33899 c 0.0127,-0.30824 0.07539,-0.37092 0.1598507,-0.15986 0.07643,0.191 0.067032,0.41921 -0.020876,0.50713 -0.087918,0.0879 -0.1504527,-0.0684 -0.1389645,-0.34727 z M 249.72299,18.079256 c 0.19101,-0.07643 0.41921,-0.06703 0.50713,0.02088 0.0879,0.08792 -0.0684,0.150452 -0.34727,0.138964 -0.30824,-0.0127 -0.37091,-0.07539 -0.15986,-0.159851 z m 27.62766,-24.9546764 c 0,-0.5093229 0.0545,-0.7176822 0.121,-0.4630208 0.0666,0.2546615 0.0666,0.6713802 0,0.9260416 -0.0666,0.2546615 -0.121,0.046302 -0.121,-0.4630208 z m -25.9244,-25.3249236 c 0.40018,-0.06062 1.05502,-0.06062 1.45521,0 0.40018,0.06062 0.0728,0.110223 -0.72761,0.110223 -0.80036,0 -1.12778,-0.0496 -0.7276,-0.110223 z"
         id="path855" />
      <path
         style="fill:#f28b76;stroke-width:0.264583"
         d="m 51.830526,305.66363 c -0.329107,-0.41965 -0.319749,-0.42899 0.0999,-0.0999 0.44073,0.34566 0.580888,0.56293 0.363125,0.56293 -0.05494,0 -0.2633,-0.20836 -0.463021,-0.46302 z m 263.955614,-0.0661 c 0.26339,-0.29105 0.53843,-0.52917 0.61119,-0.52917 0.0728,0 -0.0832,0.23812 -0.3466,0.52917 -0.2634,0.29104 -0.53843,0.52916 -0.61119,0.52916 -0.0728,0 0.0832,-0.23812 0.3466,-0.52916 z m -273.604293,-9.59115 -0.504029,-0.59531 0.595313,0.50403 c 0.559445,0.47366 0.715761,0.68659 0.504028,0.68659 -0.05021,0 -0.318098,-0.26789 -0.595312,-0.59531 z m 283.129293,0.0661 c 0.26339,-0.29105 0.53843,-0.52917 0.61119,-0.52917 0.0728,0 -0.0832,0.23812 -0.3466,0.52917 -0.2634,0.29104 -0.53843,0.52916 -0.61119,0.52916 -0.0728,0 0.0832,-0.23812 0.3466,-0.52916 z M 85.961775,271.2678 c -0.329107,-0.41966 -0.319749,-0.429 0.0999,-0.0999 0.44073,0.34565 0.580887,0.56293 0.363125,0.56293 -0.05494,0 -0.2633,-0.20836 -0.463021,-0.46302 z M 76.735109,66.04967 c 0,-0.05493 0.208359,-0.263286 0.463021,-0.46302 0.419645,-0.329089 0.429003,-0.319749 0.0999,0.09991 -0.345644,0.440717 -0.562917,0.580893 -0.562917,0.363114 z M 303.48302,44.321453 c 9.38524,-9.386094 17.12362,-17.065625 17.19638,-17.065625 0.0728,0 -7.54655,7.679531 -16.9318,17.065625 -9.38525,9.386093 -17.12362,17.065624 -17.19638,17.065624 -0.0728,0 7.54655,-7.679531 16.9318,-17.065624 z M 43.000735,31.224578 c 0.26339,-0.291041 0.538422,-0.529166 0.611182,-0.529166 0.07276,0 -0.08321,0.238125 -0.346599,0.529166 -0.26339,0.291042 -0.538421,0.529167 -0.611182,0.529167 -0.07276,0 0.08321,-0.238125 0.346599,-0.529167 z m 281.491525,-0.06615 -0.50403,-0.595312 0.59531,0.504029 c 0.55943,0.473662 0.71575,0.686596 0.50403,0.686596 -0.0502,0 -0.31811,-0.267891 -0.59531,-0.595313 z m -90.21442,-20.372916 -0.77711,-0.8598953 0.85989,0.7771053 c 0.80156,0.724371 0.98153,0.942686 0.77711,0.942686 -0.0455,0 -0.43249,-0.386953 -0.85989,-0.859896 z m 35.58886,-35.586457 -0.91181,-0.992187 0.99219,0.911799 c 0.5457,0.501489 0.99219,0.947973 0.99219,0.992188 0,0.202041 -0.22389,0.01169 -1.07257,-0.9118 z"
         id="path853" />
      <path
         style="fill:#f06d53;stroke-width:0.264583"
         d="m 182.89917,357.52765 c 0.5457,-0.0571 1.43867,-0.0571 1.98437,0 0.54571,0.0571 0.0992,0.1038 -0.99219,0.1038 -1.0914,0 -1.53789,-0.0467 -0.99218,-0.1038 z m -8.99081,-0.25519 c 0.25744,-0.0671 0.61463,-0.0627 0.79375,0.01 0.17915,0.0725 -0.0315,0.12734 -0.46805,0.12197 -0.43656,-0.005 -0.58311,-0.0647 -0.3257,-0.13179 z m 19.31458,0 c 0.25744,-0.0671 0.61463,-0.0627 0.79375,0.01 0.17915,0.0725 -0.0315,0.12734 -0.46804,0.12197 -0.43657,-0.005 -0.58312,-0.0647 -0.32571,-0.13179 z m -23.40411,-0.26196 c 0.191,-0.0764 0.41921,-0.067 0.50713,0.0209 0.0879,0.0879 -0.0684,0.15047 -0.34727,0.13898 -0.30824,-0.0127 -0.37092,-0.0754 -0.15986,-0.15986 z m 27.78125,0 c 0.191,-0.0764 0.4192,-0.067 0.50713,0.0209 0.0879,0.0879 -0.0684,0.15047 -0.34727,0.13898 -0.30824,-0.0127 -0.37092,-0.0754 -0.15986,-0.15986 z m -31.22083,-0.26459 c 0.191,-0.0764 0.4192,-0.067 0.50712,0.0209 0.0879,0.0879 -0.0684,0.15046 -0.34726,0.13898 -0.30824,-0.0127 -0.37092,-0.0754 -0.15986,-0.15986 z m 34.66041,0 c 0.191,-0.0764 0.41921,-0.067 0.50713,0.0209 0.0879,0.0879 -0.0684,0.15046 -0.34727,0.13898 -0.30824,-0.0127 -0.37092,-0.0754 -0.15986,-0.15986 z m -22.50612,-47.63097 c 0.32742,-0.0631 0.86321,-0.0631 1.19063,0 0.32742,0.0631 0.0595,0.11464 -0.59531,0.11464 -0.65485,0 -0.92274,-0.0516 -0.59532,-0.11464 z m 9.525,0 c 0.32742,-0.0631 0.86321,-0.0631 1.19063,0 0.32742,0.0631 0.0595,0.11464 -0.59532,0.11464 -0.65484,0 -0.92273,-0.0516 -0.59531,-0.11464 z m -14.55208,-0.25311 c 0.1819,-0.0734 0.47956,-0.0734 0.66146,0 0.1819,0.0734 0.0331,0.13346 -0.33073,0.13346 -0.3638,0 -0.51263,-0.0601 -0.33073,-0.13346 z m 20.10833,0 c 0.1819,-0.0734 0.47956,-0.0734 0.66146,0 0.1819,0.0734 0.0331,0.13346 -0.33073,0.13346 -0.3638,0 -0.51263,-0.0601 -0.33073,-0.13346 z M 170.348,308.59175 c 0.191,-0.0764 0.4192,-0.067 0.50712,0.0209 0.0879,0.0879 -0.0684,0.15047 -0.34726,0.13899 -0.30824,-0.0127 -0.37092,-0.0754 -0.15986,-0.15987 z m 26.72291,0 c 0.191,-0.0764 0.41921,-0.067 0.50713,0.0209 0.0879,0.0879 -0.0684,0.15047 -0.34727,0.13899 -0.30824,-0.0127 -0.37092,-0.0754 -0.15986,-0.15987 z M 54.211776,307.7803 c -0.329107,-0.41966 -0.319749,-0.429 0.0999,-0.0999 0.254662,0.19973 0.463021,0.40809 0.463021,0.46302 0,0.21778 -0.217273,0.0776 -0.562917,-0.36311 z m 258.796244,0.36311 c 0,-0.0549 0.20836,-0.26329 0.46302,-0.46302 0.41965,-0.32909 0.42899,-0.31975 0.0999,0.0999 -0.34565,0.44071 -0.56292,0.58089 -0.56292,0.36311 z m -262.222103,-3.53811 -0.641432,-0.72761 0.727604,0.64143 c 0.400182,0.3528 0.727604,0.68022 0.727604,0.72761 0,0.20751 -0.21426,0.0386 -0.813776,-0.64143 z m 266.058563,-0.0661 c 0.26339,-0.29104 0.53842,-0.52916 0.61118,-0.52916 0.0728,0 -0.0832,0.23812 -0.3466,0.52916 -0.26339,0.29104 -0.53843,0.52917 -0.61119,0.52917 -0.0728,0 0.0832,-0.23813 0.34661,-0.52917 z m -273.6043,-7.47448 -0.504028,-0.59531 0.595312,0.50403 c 0.559446,0.47366 0.715762,0.6866 0.504029,0.6866 -0.05021,0 -0.318098,-0.2679 -0.595313,-0.59532 z m 281.01263,0.0662 c 0.26339,-0.29104 0.53843,-0.52917 0.61119,-0.52917 0.0728,0 -0.0832,0.23813 -0.34661,0.52917 -0.26339,0.29104 -0.53843,0.52917 -0.61119,0.52917 -0.0728,0 0.0832,-0.23813 0.34661,-0.52917 z M 39.924276,293.4928 c -0.329107,-0.41966 -0.319748,-0.429 0.0999,-0.0999 0.440729,0.34565 0.580887,0.56293 0.363124,0.56293 -0.05494,0 -0.2633,-0.20836 -0.463021,-0.46302 z m 287.371244,0.36311 c 0,-0.0549 0.20836,-0.26328 0.46302,-0.46302 0.41965,-0.32909 0.42899,-0.31975 0.0999,0.0999 -0.34565,0.44071 -0.56292,0.58089 -0.56292,0.36311 z m -46.56667,-21.69583 c 0,-0.0549 0.20836,-0.26329 0.46302,-0.46302 0.41966,-0.32909 0.429,-0.31975 0.0999,0.0999 -0.34565,0.44071 -0.56293,0.58089 -0.56293,0.36311 z m -199.634323,-5.52249 -2.11046,-2.18281 2.182812,2.11045 c 2.02733,1.96014 2.303434,2.25517 2.11046,2.25517 -0.03979,0 -1.022059,-0.98226 -2.182812,-2.18281 z m 205.322863,0.0661 c 1.15734,-1.16417 2.16379,-2.11667 2.23655,-2.11667 0.0728,0 -0.81462,0.9525 -1.97196,2.11667 -1.15734,1.16416 -2.16379,2.11666 -2.23655,2.11666 -0.0728,0 0.81462,-0.9525 1.97196,-2.11666 z M 75.907609,261.21363 c -0.329108,-0.41965 -0.319749,-0.42899 0.0999,-0.0999 0.440729,0.34565 0.580887,0.56292 0.363124,0.56292 -0.05494,0 -0.2633,-0.20836 -0.46302,-0.46302 z m 215.404571,0.36312 c 0,-0.0549 0.20836,-0.26329 0.46303,-0.46302 0.41965,-0.32909 0.42899,-0.31975 0.0999,0.0999 -0.34565,0.44072 -0.56293,0.5809 -0.56293,0.36312 z M -8.9689993,181.08899 c 0.0127,-0.30824 0.07539,-0.37092 0.1598506,-0.15986 0.07643,0.191 0.067032,0.41921 -0.020876,0.50713 -0.087918,0.0879 -0.1504527,-0.0684 -0.1389645,-0.34727 z m 385.4978893,0 c 0.0127,-0.30824 0.0754,-0.37092 0.15986,-0.15986 0.0764,0.191 0.067,0.41921 -0.0209,0.50713 -0.0879,0.0879 -0.15047,-0.0684 -0.13899,-0.34727 z M -9.2335827,177.64941 c 0.0127,-0.30824 0.07539,-0.37092 0.1598507,-0.15986 0.07643,0.191 0.067032,0.4192 -0.020876,0.50712 -0.087918,0.0879 -0.1504527,-0.0684 -0.1389645,-0.34726 z m 386.0270527,0 c 0.0127,-0.30824 0.0754,-0.37092 0.15987,-0.15986 0.0764,0.191 0.067,0.4192 -0.0209,0.50712 -0.0879,0.0879 -0.15047,-0.0684 -0.13898,-0.34726 z M 39.185166,177.12024 c 0.0127,-0.30824 0.07539,-0.37092 0.15985,-0.15986 0.07643,0.191 0.06703,0.41921 -0.02088,0.50713 -0.08792,0.0879 -0.150453,-0.0684 -0.138965,-0.34727 z m 289.189564,0 c 0.0127,-0.30824 0.0754,-0.37092 0.15986,-0.15986 0.0764,0.191 0.067,0.41921 -0.0209,0.50713 -0.0879,0.0879 -0.15046,-0.0684 -0.13898,-0.34727 z M 38.941469,173.83499 c 0,-0.3638 0.06006,-0.51263 0.133453,-0.33073 0.0734,0.1819 0.0734,0.47956 0,0.66146 -0.0734,0.1819 -0.133453,0.0331 -0.133453,-0.33073 z m 289.697841,-0.15433 c 0.0127,-0.30824 0.0754,-0.37092 0.15986,-0.15986 0.0764,0.191 0.067,0.4192 -0.0209,0.50712 -0.0879,0.0879 -0.15047,-0.0684 -0.13899,-0.34726 z M -9.4674743,173.17353 c 0.0054,-0.43656 0.064691,-0.58311 0.1317731,-0.3257 0.067082,0.25744 0.062672,0.61463 -0.00982,0.79375 -0.072477,0.17915 -0.1273625,-0.0315 -0.1219703,-0.46805 z m 386.5562243,0 c 0.005,-0.43656 0.0647,-0.58311 0.13179,-0.3257 0.0671,0.25744 0.0627,0.61463 -0.01,0.79375 -0.0725,0.17915 -0.12735,-0.0315 -0.12197,-0.46805 z M 38.710784,167.88187 c 0.0021,-0.72761 0.05337,-0.99386 0.114186,-0.59169 0.06082,0.40219 0.05919,0.9975 -0.0036,1.32291 -0.0628,0.32544 -0.112559,-0.004 -0.110574,-0.73122 z m 290.247906,0 c 0.003,-0.72761 0.0534,-0.99386 0.11419,-0.59169 0.0608,0.40219 0.0592,0.9975 -0.004,1.32291 -0.0628,0.32544 -0.11256,-0.004 -0.11057,-0.73122 z M 38.710784,160.20895 c 0.0021,-0.72761 0.05337,-0.99386 0.114186,-0.59169 0.06082,0.40219 0.05919,0.99751 -0.0036,1.32292 -0.0628,0.32544 -0.112559,-0.004 -0.110574,-0.73123 z m 290.247906,0 c 0.003,-0.72761 0.0534,-0.99386 0.11419,-0.59169 0.0608,0.40219 0.0592,0.99751 -0.004,1.32292 -0.0628,0.32544 -0.11256,-0.004 -0.11057,-0.73123 z M -9.4674743,154.91728 c 0.0054,-0.43656 0.064691,-0.58311 0.1317731,-0.3257 0.067082,0.25744 0.062672,0.61463 -0.00982,0.79375 -0.072477,0.17915 -0.1273625,-0.0315 -0.1219703,-0.46805 z m 386.5562243,0 c 0.005,-0.43656 0.0647,-0.58311 0.13179,-0.3257 0.0671,0.25744 0.0627,0.61463 -0.01,0.79375 -0.0725,0.17915 -0.12735,-0.0315 -0.12197,-0.46805 z m -338.168168,-0.5512 c 0.0127,-0.30824 0.07539,-0.37092 0.159851,-0.15987 0.07643,0.19101 0.06703,0.41921 -0.02088,0.50713 -0.08792,0.0879 -0.150452,-0.0684 -0.138964,-0.34726 z m 289.718728,0 c 0.0127,-0.30824 0.0754,-0.37092 0.15986,-0.15987 0.0764,0.19101 0.067,0.41921 -0.0209,0.50713 -0.0879,0.0879 -0.15047,-0.0684 -0.13899,-0.34726 z M 39.185166,150.92649 c 0.0127,-0.30824 0.07539,-0.37092 0.15985,-0.15986 0.07643,0.191 0.06703,0.41921 -0.02088,0.50713 -0.08792,0.0879 -0.150453,-0.0684 -0.138965,-0.34727 z m 289.189564,0 c 0.0127,-0.30824 0.0754,-0.37092 0.15986,-0.15986 0.0764,0.191 0.067,0.41921 -0.0209,0.50713 -0.0879,0.0879 -0.15046,-0.0684 -0.13898,-0.34727 z M -9.2335827,150.39733 c 0.0127,-0.30824 0.07539,-0.37092 0.1598507,-0.15987 0.07643,0.19101 0.067032,0.41921 -0.020876,0.50713 -0.087918,0.0879 -0.1504527,-0.0684 -0.1389645,-0.34726 z m 386.0270527,0 c 0.0127,-0.30824 0.0754,-0.37092 0.15987,-0.15987 0.0764,0.19101 0.067,0.41921 -0.0209,0.50713 -0.0879,0.0879 -0.15047,-0.0684 -0.13898,-0.34726 z M 39.449749,148.28066 c 0.0127,-0.30824 0.07539,-0.37092 0.159851,-0.15986 0.07643,0.191 0.06703,0.4192 -0.02088,0.50712 -0.08792,0.0879 -0.150453,-0.0684 -0.138964,-0.34726 z M 291.01384,66.215723 c -0.32909,-0.419656 -0.31975,-0.428996 0.0999,-0.09991 0.44071,0.345652 0.58089,0.562928 0.36311,0.562928 -0.0549,0 -0.26329,-0.20836 -0.46302,-0.463021 z M 132.4299,10.057912 c 28.23075,-28.23104 51.38819,-51.329165 51.46095,-51.329165 0.0728,0 -22.96562,23.098125 -51.19637,51.329165 -28.23076,28.231041 -51.388184,51.329165 -51.460944,51.329165 -0.07276,0 22.965604,-23.098124 51.196364,-51.329165 z m -92.20729,24.24177 c 0,-0.05494 0.208359,-0.2633 0.463021,-0.463021 0.419645,-0.329107 0.429003,-0.319749 0.0999,0.0999 -0.345644,0.44073 -0.562917,0.580888 -0.562917,0.363125 z m 286.77456,-0.363125 c -0.32909,-0.419645 -0.31975,-0.429003 0.0999,-0.0999 0.25466,0.199721 0.46302,0.40808 0.46302,0.463021 0,0.217763 -0.21728,0.07761 -0.56293,-0.363125 z M 43.662193,30.612621 c 0,-0.04554 0.386953,-0.432488 0.859896,-0.859896 l 0.859896,-0.777105 -0.777105,0.859896 c -0.724371,0.801544 -0.942687,0.981511 -0.942687,0.777105 z m 279.385757,-0.909397 -0.91181,-0.992187 0.99219,0.911799 c 0.5457,0.501488 0.99219,0.947973 0.99219,0.992187 0,0.202041 -0.22389,0.01169 -1.07257,-0.911799 z M 250.50021,18.084767 c 0.1819,-0.0734 0.47955,-0.0734 0.66146,0 0.1819,0.0734 0.0331,0.133453 -0.33073,0.133453 -0.36381,0 -0.51263,-0.06005 -0.33073,-0.133453 z m 2.64583,0 c 0.1819,-0.0734 0.47956,-0.0734 0.66146,0 0.1819,0.0734 0.0331,0.133453 -0.33073,0.133453 -0.3638,0 -0.51263,-0.06005 -0.33073,-0.133453 z M 227.03931,-5.1776765 c 0.0127,-0.3082263 0.0754,-0.3709194 0.15986,-0.1598533 0.0764,0.1909948 0.067,0.4192005 -0.0209,0.5071189 -0.0879,0.087918 -0.15047,-0.068352 -0.13898,-0.3472656 z m 0,-3.4395832 c 0.0127,-0.3082264 0.0754,-0.3709194 0.15986,-0.1598533 0.0764,0.1909947 0.067,0.4192005 -0.0209,0.5071189 -0.0879,0.087918 -0.15047,-0.068352 -0.13898,-0.3472656 z"
         id="path851" />
      <path
         style="fill:#ed4b2b;stroke-width:0.00719412"
         d="m 6.0185058,12.693301 c -1.289065,-0.08429 -2.479908,-0.622381 -3.388779,-1.531252 -0.990886,-0.990885 -1.539133,-2.3158666 -1.539133,-3.7197106 0,-1.305301 0.466073,-2.523875 1.34414,-3.514333 0.0456,-0.05143 0.945048,-0.95628 1.998768,-2.01076 L 6.3493588,1.0415024e-5 6.3494408,0.92781042 l 8.1e-5,0.92780098 -1.444626,1.446262 c -0.814938,0.815777 -1.481489,1.488863 -1.529074,1.543983 -0.235799,0.273134 -0.404762,0.526299 -0.561456,0.841251 -0.224677,0.451597 -0.355561,0.92074 -0.401374,1.438689 -0.01329,0.15024 -0.0111,0.527444 0.0039,0.676249 0.05546,0.549134 0.205366,1.049017 0.451391,1.505208 0.548621,1.0172766 1.506596,1.7432426 2.627271,1.9909786 1.050316,0.232183 2.149938,0.02612 3.044463,-0.570504 0.598133,-0.398941 1.090385,-0.9723026 1.389367,-1.6182976 0.3873252,-0.836874 0.4714352,-1.772817 0.2396322,-2.666584 -0.163997,-0.63233 -0.5058692,-1.248229 -0.9466202,-1.705383 l -0.08078,-0.08378 0.465374,-0.465288 0.4653752,-0.465288 0.108587,0.116839 c 0.138963,0.149524 0.152,0.164262 0.237015,0.267917 0.885596,1.079775 1.305218,2.471435 1.164869,3.863247 -0.142026,1.408423 -0.839594,2.6913736 -1.9457162,3.5785136 -0.849581,0.681387 -1.869474,1.073718 -2.97465,1.144285 -0.132052,0.0084 -0.511242,0.008 -0.643998,-6.03e-4 z m 2.140254,-9.2196016 c -0.207962,-0.01806 -0.400196,-0.127923 -0.514459,-0.293998 -0.03088,-0.04488 -0.08171,-0.15547 -0.09583,-0.208515 -0.07085,-0.266038 0.02564,-0.553042 0.241409,-0.718071 0.199896,-0.15289 0.475673,-0.184723 0.700475,-0.08085 0.138034,0.06378 0.260795,0.182211 0.328497,0.316922 0.06826,0.135815 0.08767,0.324677 0.04879,0.474813 -0.05408,0.208848 -0.217626,0.391286 -0.418589,0.466928 -0.08008,0.03014 -0.211992,0.04958 -0.290293,0.04278 z"
         id="path849" />
    </g>
  </g>
</svg>
